<svg width="48" height="47" viewBox="0 0 48 47" fill="none" xmlns="http://www.w3.org/2000/svg">
<path d="M24.4642 11.4498C17.7956 11.4498 12.4166 16.8299 12.4166 23.5C12.4166 30.1701 17.7956 35.5502 24.4642 35.5502C31.1328 35.5502 36.5117 30.1701 36.5117 23.5C36.5117 16.8299 31.1328 11.4498 24.4642 11.4498ZM24.4642 31.3342C20.1547 31.3342 16.6317 27.8209 16.6317 23.5C16.6317 19.1791 20.1443 15.6658 24.4642 15.6658C28.7841 15.6658 32.2966 19.1791 32.2966 23.5C32.2966 27.8209 28.7736 31.3342 24.4642 31.3342ZM39.8145 10.9569C39.8145 12.5195 38.5563 13.7675 37.0045 13.7675C35.4422 13.7675 34.1945 12.509 34.1945 10.9569C34.1945 9.40472 35.4527 8.14621 37.0045 8.14621C38.5563 8.14621 39.8145 9.40472 39.8145 10.9569ZM47.7938 13.8095C47.6155 10.0445 46.7557 6.70942 43.9981 3.96168C41.251 1.21393 37.9167 0.353955 34.1525 0.165179C30.273 -0.0550597 18.6449 -0.0550597 14.7653 0.165179C11.0116 0.343468 7.67733 1.20345 4.91972 3.95119C2.1621 6.69893 1.3128 10.034 1.12407 13.799C0.903876 17.6794 0.903876 29.3101 1.12407 33.1905C1.30231 36.9555 2.1621 40.2906 4.91972 43.0383C7.67733 45.7861 11.0011 46.646 14.7653 46.8348C18.6449 47.0551 30.273 47.0551 34.1525 46.8348C37.9167 46.6565 41.251 45.7966 43.9981 43.0383C46.7453 40.2906 47.605 36.9555 47.7938 33.1905C48.014 29.3101 48.014 17.6899 47.7938 13.8095ZM42.7818 37.3541C41.964 39.4096 40.3807 40.9933 38.3151 41.8218C35.222 43.0488 27.8823 42.7656 24.4642 42.7656C21.046 42.7656 13.6958 43.0383 10.6132 41.8218C8.55809 41.0037 6.97482 39.4201 6.14649 37.3541C4.91972 34.2602 5.20282 26.9189 5.20282 23.5C5.20282 20.0811 4.9302 12.7293 6.14649 9.64593C6.96433 7.59037 8.5476 6.00675 10.6132 5.17823C13.7063 3.95119 21.046 4.23435 24.4642 4.23435C27.8823 4.23435 35.2325 3.96168 38.3151 5.17823C40.3702 5.99626 41.9535 7.57988 42.7818 9.64593C44.0086 12.7398 43.7255 20.0811 43.7255 23.5C43.7255 26.9189 44.0086 34.2707 42.7818 37.3541Z" fill="white"/>
</svg>
