<svg width="48" height="47" viewBox="0 0 48 47" fill="none" xmlns="http://www.w3.org/2000/svg">
<path d="M24.4589 0C11.4802 0 0.958923 10.5213 0.958923 23.5C0.958923 36.4787 11.4802 47 24.4589 47C37.4376 47 47.9589 36.4787 47.9589 23.5C47.9589 10.5213 37.4376 0 24.4589 0ZM35.3516 15.9819C34.9979 19.6978 33.4677 28.7153 32.6889 32.8773C32.3595 34.6382 31.7108 35.2288 31.0829 35.2865C29.7184 35.4121 28.6819 34.3847 27.3601 33.5182C25.2918 32.1624 24.1234 31.3184 22.1157 29.9954C19.7955 28.4665 21.2996 27.6264 22.6218 26.2524C22.9679 25.893 28.9808 20.4239 29.0971 19.9277C29.1116 19.8656 29.1256 19.634 28.9878 19.5123C28.85 19.3906 28.6476 19.4318 28.5012 19.4649C28.2938 19.512 24.9897 21.696 18.5888 26.0167C17.651 26.6607 16.8015 26.9744 16.0403 26.958C15.2013 26.9399 13.5872 26.4836 12.3873 26.0935C10.9156 25.6152 9.74593 25.3623 9.8478 24.5498C9.90086 24.1266 10.4836 23.6938 11.5961 23.2516C18.4468 20.2669 23.0151 18.2991 25.3008 17.3482C31.8269 14.6337 33.183 14.1622 34.0669 14.1464C34.2614 14.1432 34.696 14.1913 34.9775 14.4198C35.1648 14.5826 35.2842 14.8097 35.312 15.0562C35.3597 15.3623 35.373 15.6728 35.3516 15.9819Z" fill="white"/>
</svg>
