<svg width="67" height="47" viewBox="0 0 67 47" fill="none" xmlns="http://www.w3.org/2000/svg">
<path d="M65.5597 7.35391C64.7897 4.45925 62.5207 2.1795 59.6399 1.40584C54.4181 0 33.4795 0 33.4795 0C33.4795 0 12.5409 0 7.31904 1.40584C4.43819 2.17963 2.16926 4.45925 1.39917 7.35391C0 12.6007 0 23.5475 0 23.5475C0 23.5475 0 34.4943 1.39917 39.7411C2.16926 42.6357 4.43819 44.8205 7.31904 45.5942C12.5409 47 33.4795 47 33.4795 47C33.4795 47 54.418 47 59.6399 45.5942C62.5207 44.8205 64.7897 42.6357 65.5597 39.7411C66.9589 34.4943 66.9589 23.5475 66.9589 23.5475C66.9589 23.5475 66.9589 12.6007 65.5597 7.35391ZM26.6313 33.4864V13.6086L44.1319 23.5477L26.6313 33.4864Z" fill="white"/>
</svg>
