<svg width="209" height="70" viewBox="0 0 209 70" fill="none" xmlns="http://www.w3.org/2000/svg">
<g clip-path="url(#clip0_550_1774)">
<path d="M192.357 0.0002275H16.6529C16.0124 0.0002275 15.3796 0.0002275 14.7408 0.0037275C14.2061 0.0072275 13.6757 0.017395 13.1358 0.0259525C11.9631 0.0397807 10.793 0.143161 9.63592 0.335195C8.48044 0.53141 7.36116 0.90133 6.31593 1.43244C5.27198 1.96805 4.31809 2.66402 3.48887 3.4951C2.65529 4.32384 1.96044 5.28176 1.43104 6.33201C0.900175 7.38017 0.532072 8.50337 0.339443 9.66282C0.144983 10.8208 0.0403426 11.9921 0.0264603 13.1663C0.0102523 13.7029 0.00854066 14.2412 0 14.7778V55.2278C0.00854066 55.7712 0.0102523 56.2976 0.0264603 56.8411C0.0403469 58.0152 0.144988 59.1865 0.339443 60.3444C0.53154 61.5046 0.899665 62.6284 1.43104 63.677C1.9602 64.7238 2.65515 65.6778 3.48887 66.502C4.31495 67.3368 5.26945 68.0332 6.31593 68.5647C7.36115 69.0972 8.48032 69.4694 9.63592 69.6686C10.7932 69.8591 11.9631 69.9625 13.1358 69.978C13.6757 69.9899 14.2061 69.9967 14.7408 69.9967C15.3796 70.0002 16.0124 70.0002 16.6529 70.0002H192.357C192.984 70.0002 193.622 70.0002 194.25 69.9967C194.782 69.9967 195.328 69.9899 195.86 69.978C197.03 69.9633 198.198 69.8599 199.353 69.6686C200.512 69.468 201.636 69.0959 202.686 68.5647C203.731 68.0329 204.685 67.3365 205.51 66.502C206.342 65.6746 207.038 64.7213 207.574 63.677C208.102 62.6276 208.466 61.5039 208.655 60.3444C208.85 59.1863 208.959 58.0153 208.98 56.8411C208.986 56.2976 208.986 55.7712 208.986 55.2278C209 54.592 209 53.9597 209 53.3136V16.6885C209 16.0476 209 15.4118 208.986 14.7778C208.986 14.2412 208.986 13.7029 208.98 13.1662C208.959 11.992 208.85 10.8209 208.655 9.66275C208.466 8.50397 208.101 7.38086 207.574 6.33194C206.496 4.22682 204.786 2.51327 202.686 1.43229C201.636 0.90247 200.512 0.532648 199.353 0.335037C198.198 0.142157 197.031 0.0387411 195.86 0.0257075C195.328 0.0171675 194.782 0.0069125 194.25 0.0035C193.622 0 192.984 0 192.357 0V0.0002275Z" fill="#A6A6A6"/>
<path d="M14.7494 68.4687C14.2172 68.4687 13.6979 68.4619 13.17 68.45C12.0762 68.4357 10.9851 68.3403 9.90541 68.1646C8.89867 67.9909 7.92342 67.6677 7.01182 67.2058C6.10857 66.7477 5.28474 66.147 4.57188 65.4267C3.8487 64.715 3.24662 63.8894 2.7895 62.9828C2.32734 62.0704 2.0075 61.0923 1.84112 60.0827C1.66144 58.9979 1.56423 57.901 1.55032 56.8015C1.53925 56.4324 1.52475 55.2036 1.52475 55.2036V14.7776C1.52475 14.7776 1.54019 13.5676 1.55041 13.2121C1.56373 12.1143 1.66037 11.0191 1.83951 9.93603C2.0062 8.92369 2.32629 7.94281 2.7887 7.02735C3.24414 6.1214 3.84287 5.29526 4.5617 4.58094C5.27971 3.85984 6.10618 3.25606 7.01096 2.79162C7.92047 2.33116 8.89388 2.01028 9.89858 1.83972C10.9818 1.66221 12.0767 1.56624 13.1743 1.55262L14.7502 1.53125H194.241L195.836 1.55348C196.924 1.56642 198.009 1.66154 199.082 1.83801C200.097 2.01071 201.08 2.33383 202 2.79674C203.813 3.73273 205.288 5.21354 206.218 7.03162C206.673 7.94076 206.988 8.91364 207.153 9.91723C207.334 11.0092 207.436 12.113 207.456 13.2198C207.461 13.7154 207.461 14.2478 207.461 14.7776C207.475 15.4338 207.475 16.0585 207.475 16.6882V53.3134C207.475 53.9492 207.475 54.5695 207.461 55.195C207.461 55.7641 207.461 56.2854 207.455 56.822C207.434 57.909 207.335 58.9931 207.156 60.0656C206.993 61.0825 206.675 62.0681 206.213 62.9881C205.753 63.8848 205.154 64.7032 204.439 65.4131C203.726 66.1372 202.9 66.7414 201.995 67.2024C201.078 67.6679 200.096 67.9923 199.082 68.1646C198.002 68.3413 196.911 68.4367 195.817 68.45C195.306 68.4619 194.77 68.4687 194.25 68.4687L192.357 68.4722L14.7494 68.4687Z" fill="black"/>
<path d="M43.2603 35.5266C43.279 34.0659 43.6663 32.6337 44.3859 31.3633C45.1055 30.0929 46.1342 29.0255 47.3761 28.2604C46.5871 27.1314 45.5463 26.2023 44.3362 25.5468C43.1262 24.8913 41.7802 24.5276 40.4053 24.4845C37.4725 24.1761 34.6291 26.243 33.1346 26.243C31.6111 26.243 29.31 24.5151 26.8322 24.5662C25.2294 24.6181 23.6674 25.0851 22.2983 25.9217C20.9292 26.7583 19.7997 27.936 19.0199 29.34C15.6421 35.1997 18.1617 43.8116 21.3974 48.5481C23.0162 50.8675 24.9083 53.4583 27.3839 53.3664C29.8065 53.2657 30.7113 51.8186 33.6355 51.8186C36.5326 51.8186 37.3815 53.3664 39.9074 53.308C42.507 53.2657 44.1448 50.9783 45.7069 48.637C46.87 46.9844 47.7651 45.1578 48.3589 43.2251C46.8486 42.5851 45.5598 41.5138 44.6531 40.1447C43.7464 38.7757 43.262 37.1696 43.2603 35.5266V35.5266Z" fill="white"/>
<path d="M38.4893 21.3698C39.9067 19.665 40.605 17.4736 40.4359 15.2612C38.2704 15.4891 36.2702 16.5261 34.8336 18.1655C34.1313 18.9665 33.5933 19.8982 33.2506 20.9076C32.9078 21.9169 32.767 22.9841 32.8361 24.048C33.9192 24.0592 34.9907 23.8239 35.9699 23.36C36.9492 22.8961 37.8106 22.2156 38.4893 21.3698Z" fill="white"/>
<path d="M73.8833 47.4949H65.6161L63.6308 53.3687H60.1292L67.9597 31.6372H71.5978L79.4283 53.3687H75.8669L73.8833 47.4949ZM66.4724 44.7845H73.0254L69.795 35.2517H69.7046L66.4724 44.7845Z" fill="white"/>
<path d="M96.3395 45.4475C96.3395 50.3711 93.7094 53.5344 89.7404 53.5344C88.735 53.5871 87.7351 53.3551 86.8552 52.8648C85.9753 52.3746 85.251 51.646 84.7652 50.7624H84.69V58.6101H81.4442V37.5247H84.5861V40.1599H84.6458C85.1539 39.2806 85.8905 38.5558 86.7771 38.0625C87.6637 37.5693 88.6672 37.3261 89.6807 37.3589C93.694 37.3589 96.3395 40.5376 96.3395 45.4475ZM93.0033 45.4475C93.0033 42.2398 91.3488 40.1309 88.8245 40.1309C86.3445 40.1309 84.6764 42.2842 84.6764 45.4475C84.6764 48.6399 86.3445 50.7778 88.8245 50.7778C91.3488 50.7778 93.0033 48.6843 93.0033 45.4475Z" fill="white"/>
<path d="M113.744 45.4475C113.744 50.3711 111.114 53.5344 107.145 53.5344C106.139 53.5871 105.139 53.355 104.259 52.8648C103.379 52.3746 102.655 51.646 102.169 50.7624H102.094V58.6101H98.8484V37.5246H101.99V40.1599H102.05C102.558 39.2806 103.295 38.5558 104.181 38.0625C105.068 37.5693 106.071 37.3261 107.085 37.3589C111.098 37.3589 113.744 40.5376 113.744 45.4475ZM110.407 45.4475C110.407 42.2398 108.753 40.1308 106.229 40.1308C103.749 40.1308 102.081 42.2842 102.081 45.4475C102.081 48.6399 103.749 50.7778 106.229 50.7778C108.753 50.7778 110.407 48.6843 110.407 45.4475H110.407Z" fill="white"/>
<path d="M125.246 47.3138C125.487 49.4688 127.576 50.8838 130.431 50.8838C133.167 50.8838 135.136 49.4688 135.136 47.5256C135.136 45.8389 133.948 44.8289 131.138 44.1367L128.327 43.4583C124.344 42.4944 122.495 40.6282 122.495 37.5999C122.495 33.8503 125.756 31.2749 130.387 31.2749C134.97 31.2749 138.112 33.8503 138.218 37.5999H134.941C134.745 35.4312 132.956 34.1221 130.341 34.1221C127.726 34.1221 125.937 35.4466 125.937 37.3743C125.937 38.9107 127.08 39.8147 129.875 40.5068L132.265 41.0947C136.715 42.1491 138.564 43.9402 138.564 47.1188C138.564 51.1845 135.332 53.7309 130.191 53.7309C125.381 53.7309 122.134 51.2443 121.924 47.3137L125.246 47.3138Z" fill="white"/>
<path d="M145.569 33.7754V37.5249H148.576V40.1003H145.569V48.835C145.569 50.1919 146.171 50.8242 147.493 50.8242C147.85 50.818 148.206 50.7929 148.561 50.749V53.309C147.966 53.4203 147.362 53.4707 146.758 53.4594C143.556 53.4594 142.308 52.2546 142.308 49.1818V40.1003H140.009V37.5249H142.308V33.7754H145.569Z" fill="white"/>
<path d="M150.317 45.4477C150.317 40.4626 153.248 37.3301 157.817 37.3301C162.402 37.3301 165.318 40.4626 165.318 45.4477C165.318 50.4465 162.417 53.5654 157.817 53.5654C153.219 53.5654 150.317 50.4465 150.317 45.4477ZM162.011 45.4477C162.011 42.0281 160.447 40.0098 157.817 40.0098C155.187 40.0098 153.625 42.0435 153.625 45.4477C153.625 48.8811 155.187 50.884 157.817 50.884C160.447 50.884 162.011 48.8811 162.011 45.4477H162.011Z" fill="white"/>
<path d="M167.994 37.5245H171.09V40.2213H171.165C171.375 39.379 171.867 38.6347 172.56 38.1134C173.252 37.5921 174.103 37.3256 174.969 37.3587C175.343 37.3574 175.716 37.3981 176.081 37.4801V40.522C175.609 40.3775 175.116 40.3111 174.622 40.3255C174.151 40.3064 173.681 40.3897 173.244 40.5697C172.808 40.7498 172.416 41.0223 172.094 41.3686C171.773 41.7149 171.53 42.1268 171.383 42.576C171.235 43.0251 171.187 43.501 171.24 43.9708V53.3685H167.994L167.994 37.5245Z" fill="white"/>
<path d="M191.046 48.7153C190.609 51.5915 187.814 53.5654 184.237 53.5654C179.637 53.5654 176.782 50.4773 176.782 45.5229C176.782 40.5532 179.652 37.3301 184.101 37.3301C188.475 37.3301 191.227 40.3413 191.227 45.1453V46.2595H180.058V46.456C180.007 47.0392 180.08 47.6266 180.272 48.1793C180.464 48.732 180.772 49.2374 181.174 49.6618C181.577 50.0863 182.065 50.4201 182.606 50.6412C183.146 50.8622 183.728 50.9654 184.312 50.9438C185.079 51.0158 185.849 50.8379 186.507 50.4363C187.165 50.0348 187.676 49.4312 187.964 48.7153L191.046 48.7153ZM180.074 43.9866H187.979C188.008 43.4623 187.929 42.9376 187.746 42.4455C187.563 41.9534 187.281 41.5044 186.917 41.1268C186.553 40.7493 186.114 40.4512 185.63 40.2513C185.145 40.0514 184.625 39.9541 184.101 39.9653C183.572 39.9622 183.048 40.0639 182.559 40.2647C182.07 40.4655 181.625 40.7614 181.251 41.1352C180.876 41.5091 180.58 41.9536 180.378 42.4429C180.176 42.9323 180.072 43.457 180.074 43.9866V43.9866Z" fill="white"/>
<path d="M64.1655 19.6939H65.559C65.7989 19.7239 66.0423 19.7037 66.274 19.6346C66.5057 19.5656 66.7207 19.4492 66.9053 19.2929C67.0899 19.1365 67.2401 18.9435 67.3466 18.726C67.4531 18.5086 67.5134 18.2714 67.5238 18.0294C67.5238 17.0664 66.8007 16.4443 65.5743 16.4443C65.3286 16.4099 65.0784 16.4252 64.8386 16.4892C64.5989 16.5533 64.3743 16.6648 64.1783 16.8173C63.9823 16.9697 63.8187 17.16 63.6973 17.3768C63.5758 17.5937 63.499 17.8327 63.4713 18.0798H61.9413C61.9676 17.6313 62.0858 17.193 62.2886 16.7922C62.4913 16.3914 62.7741 16.0368 63.1196 15.7503C63.465 15.4638 63.8656 15.2516 64.2964 15.127C64.7273 15.0024 65.1791 14.9679 65.6237 15.0258C67.6756 15.0258 69.1204 16.1768 69.1204 17.8337C69.1252 18.3887 68.9398 18.9287 68.5953 19.3633C68.2507 19.798 67.7678 20.1011 67.2271 20.222V20.345C67.8681 20.3735 68.4717 20.6551 68.9061 21.1283C69.3404 21.6015 69.5702 22.2277 69.545 22.8701C69.4976 23.3319 69.3586 23.7796 69.1363 24.1869C68.9139 24.5942 68.6127 24.9529 68.2502 25.242C67.8877 25.5311 67.4712 25.7449 67.0252 25.8706C66.5792 25.9964 66.1126 26.0317 65.6528 25.9744C65.192 26.0374 64.7233 26.0067 64.2746 25.8843C63.826 25.7619 63.4065 25.5502 63.0412 25.2618C62.6759 24.9735 62.3723 24.6144 62.1485 24.206C61.9246 23.7976 61.7852 23.3482 61.7384 22.8846H63.2922C63.386 23.8835 64.302 24.5279 65.6528 24.5279C67.0036 24.5279 67.8855 23.8041 67.8855 22.7838C67.8855 21.7491 67.0548 21.1116 65.6033 21.1116H64.1655V19.6939Z" fill="white"/>
<path d="M71.3103 23.4932C71.3103 22.0747 72.3661 21.257 74.2355 21.1407L76.3658 21.0177V20.3375C76.3658 19.5052 75.8183 19.0353 74.7557 19.0353C73.8892 19.0353 73.2906 19.354 73.1166 19.9111H71.6139C71.7726 18.5576 73.045 17.6895 74.829 17.6895C76.8007 17.6895 77.9128 18.673 77.9128 20.3375V25.7217H76.417V24.6143H76.2942C76.0449 25.0115 75.6949 25.3353 75.2799 25.5527C74.8648 25.7701 74.3997 25.8732 73.9319 25.8515C73.6017 25.8859 73.268 25.8506 72.9523 25.7479C72.6366 25.6452 72.3459 25.4773 72.0989 25.2551C71.8519 25.0329 71.6541 24.7613 71.5183 24.4578C71.3825 24.1544 71.3116 23.8257 71.3103 23.4932V23.4932ZM76.3658 22.8198V22.161L74.4452 22.284C73.3621 22.3567 72.8709 22.7258 72.8709 23.4205C72.8709 24.1297 73.4849 24.5425 74.3293 24.5425C74.5767 24.5676 74.8266 24.5425 75.0641 24.4689C75.3017 24.3952 75.522 24.2744 75.712 24.1137C75.902 23.953 76.0578 23.7556 76.1701 23.5333C76.2824 23.311 76.349 23.0684 76.3658 22.8198V22.8198Z" fill="white"/>
<path d="M82.0318 19.1504V25.7214H80.4797V17.8413H85.6581V19.1503L82.0318 19.1504Z" fill="white"/>
<path d="M95.0645 21.7781C95.0645 24.2818 93.8007 25.8515 91.8153 25.8515C91.328 25.8848 90.8412 25.778 90.4125 25.5435C89.9837 25.309 89.6307 24.9566 89.395 24.5279H89.2722V28.3415H87.7201V17.8415H89.2142V19.1438H89.3302C89.5701 18.7001 89.9277 18.3314 90.3635 18.0785C90.7994 17.8256 91.2965 17.6984 91.8 17.7108C93.8006 17.7107 95.0645 19.2736 95.0645 21.7781ZM93.4681 21.7781C93.4681 20.1136 92.6818 19.1078 91.3667 19.1078C90.0603 19.1078 89.2432 20.1349 89.2432 21.785C89.2432 23.4273 90.0602 24.4553 91.3599 24.4553C92.6818 24.4552 93.4681 23.4495 93.4681 21.7781Z" fill="white"/>
<path d="M97.1317 28.5438V27.2048C97.2997 27.2262 97.4689 27.2359 97.6382 27.2339C97.9689 27.2584 98.297 27.1598 98.5595 26.9568C98.822 26.7538 99.0005 26.4609 99.0607 26.1342L99.1767 25.7505L96.33 17.8413H98.0203L99.9921 24.1005H100.115L102.08 17.8413H103.726L100.794 26.047C100.122 27.9645 99.3781 28.5797 97.7748 28.5797C97.6451 28.5797 97.2767 28.5652 97.1317 28.5438Z" fill="white"/>
<path d="M104.935 23.4854H106.48C106.632 24.1802 107.282 24.5424 108.191 24.5424C109.225 24.5424 109.859 24.0861 109.859 23.3769C109.859 22.6173 109.289 22.255 108.191 22.255H107.014V21.0467H108.171C109.109 21.0467 109.586 20.6853 109.586 20.0265C109.586 19.448 109.124 19.0062 108.171 19.0062C107.302 19.0062 106.668 19.3754 106.567 19.9974H105.071C105.183 19.2826 105.571 18.6403 106.15 18.2087C106.73 17.7771 107.455 17.5907 108.171 17.6894C110.04 17.6894 111.109 18.5363 111.109 19.8675C111.118 20.2383 110.999 20.6008 110.773 20.8944C110.547 21.1881 110.228 21.3951 109.868 21.4808V21.6039C110.296 21.6593 110.69 21.8704 110.973 22.1973C111.257 22.5241 111.411 22.9439 111.406 23.3769C111.406 24.8749 110.134 25.8661 108.191 25.8661C106.473 25.866 105.078 25.0773 104.935 23.4854Z" fill="white"/>
<path d="M113.641 25.7214V17.8413H115.18V23.2614H115.303L118.927 17.8413H120.465V25.7215H118.927V20.2724H118.811L115.18 25.7215L113.641 25.7214Z" fill="white"/>
<path d="M128.941 19.1503H126.464V25.7213H124.91V19.1503H122.434V17.8413H128.941V19.1503Z" fill="white"/>
<path d="M137.302 23.5932C137.09 24.3133 136.633 24.9361 136.01 25.3528C135.386 25.7695 134.637 25.9536 133.892 25.8729C133.374 25.8866 132.859 25.7872 132.383 25.5815C131.907 25.3759 131.482 25.0689 131.136 24.6819C130.79 24.2949 130.533 23.8372 130.381 23.3405C130.23 22.8438 130.188 22.32 130.259 21.8056C130.19 21.2895 130.233 20.7646 130.384 20.2664C130.535 19.7683 130.791 19.3084 131.135 18.918C131.479 18.5277 131.902 18.2159 132.377 18.0038C132.851 17.7916 133.366 17.6842 133.885 17.6886C136.074 17.6886 137.395 19.1866 137.395 21.6611V22.2038H131.842V22.2909C131.817 22.5802 131.853 22.8714 131.948 23.1458C132.042 23.4202 132.193 23.6719 132.39 23.8845C132.588 24.0971 132.827 24.266 133.093 24.3803C133.36 24.4947 133.647 24.5519 133.936 24.5484C134.308 24.5929 134.683 24.5258 135.016 24.3557C135.349 24.1856 135.624 23.9201 135.806 23.5931L137.302 23.5932ZM131.842 21.0536H135.813C135.832 20.7893 135.796 20.5237 135.708 20.2741C135.619 20.0244 135.479 19.7961 135.297 19.6039C135.114 19.4117 134.894 19.2597 134.65 19.1578C134.406 19.0559 134.143 19.0063 133.878 19.0122C133.61 19.0086 133.343 19.0589 133.095 19.1602C132.846 19.2615 132.62 19.4117 132.43 19.602C132.24 19.7923 132.09 20.0189 131.989 20.2682C131.888 20.5175 131.838 20.7846 131.842 21.0536H131.842Z" fill="white"/>
<path d="M143.882 17.8413H147.428C148.966 17.8413 149.869 18.6223 149.869 19.8451C149.871 20.233 149.74 20.6101 149.499 20.9131C149.257 21.2161 148.918 21.4267 148.54 21.5096V21.6326C148.999 21.6617 149.43 21.8664 149.743 22.2045C150.056 22.5426 150.227 22.9882 150.222 23.4493C150.222 24.8242 149.19 25.7214 147.464 25.7214H143.882V17.8413ZM145.42 19.035V21.0755H146.959C147.897 21.0755 148.346 20.7141 148.346 20.0476C148.346 19.4332 147.955 19.035 147.131 19.035L145.42 19.035ZM145.42 22.2189V24.5277H147.261C148.178 24.5277 148.67 24.1218 148.67 23.3767C148.67 22.588 148.114 22.2189 147.066 22.2189L145.42 22.2189Z" fill="white"/>
</g>
<defs>
<clipPath id="clip0_550_1774">
<rect width="209" height="70" fill="white"/>
</clipPath>
</defs>
</svg>
