<svg width="144" height="48" viewBox="0 0 144 48" fill="none" xmlns="http://www.w3.org/2000/svg">
<g clip-path="url(#clip0_852_1033)">
<path d="M132.533 0.000156H11.4737C11.0325 0.000156 10.5965 0.000156 10.1564 0.002556C9.78796 0.004956 9.42249 0.011928 9.05054 0.017796C8.24249 0.0272782 7.43635 0.0981675 6.63911 0.229848C5.84299 0.364395 5.07181 0.618055 4.35165 0.982248C3.63237 1.34952 2.97514 1.82676 2.40381 2.39664C1.82948 2.96492 1.35074 3.62178 0.98598 4.34195C0.620217 5.06069 0.366595 5.83088 0.233875 6.62593C0.0998928 7.41998 0.0277959 8.22318 0.018231 9.02833C0.00706378 9.39625 0.00588447 9.7654 0 10.1334V37.8705C0.00588447 38.2431 0.00706378 38.604 0.018231 38.9768C0.0277988 39.7819 0.0998957 40.585 0.233875 41.379C0.366228 42.1746 0.619865 42.9452 0.98598 43.6642C1.35057 44.382 1.82939 45.0362 2.40381 45.6014C2.97298 46.1738 3.63063 46.6513 4.35165 47.0158C5.0718 47.381 5.8429 47.6361 6.63911 47.7728C7.43648 47.9034 8.24254 47.9743 9.05054 47.9849C9.42249 47.9931 9.78796 47.9978 10.1564 47.9978C10.5965 48.0002 11.0325 48.0002 11.4737 48.0002H132.533C132.965 48.0002 133.405 48.0002 133.837 47.9978C134.204 47.9978 134.58 47.9931 134.947 47.9849C135.753 47.9749 136.558 47.9039 137.353 47.7728C138.152 47.6352 138.926 47.3801 139.65 47.0158C140.37 46.6511 141.027 46.1736 141.596 45.6014C142.169 45.034 142.648 44.3803 143.018 43.6642C143.381 42.9447 143.632 42.1741 143.763 41.379C143.897 40.5849 143.971 39.7819 143.986 38.9768C143.991 38.604 143.991 38.2431 143.991 37.8705C144 37.4345 144 37.001 144 36.5579V11.4435C144 11.0041 144 10.5681 143.991 10.1334C143.991 9.7654 143.991 9.39625 143.986 9.02828C143.971 8.22306 143.897 7.42004 143.763 6.62588C143.632 5.83129 143.381 5.06116 143.018 4.3419C142.275 2.89839 141.097 1.72339 139.65 0.98214C138.926 0.618837 138.152 0.365245 137.353 0.22974C136.558 0.0974793 135.753 0.0265653 134.947 0.017628C134.58 0.011772 134.204 0.00474 133.837 0.0024C133.405 0 132.965 0 132.533 0V0.000156Z" fill="#A6A6A6"/>
<path d="M10.1623 46.9503C9.79571 46.9503 9.43792 46.9456 9.07416 46.9374C8.32058 46.9277 7.56877 46.8622 6.82489 46.7417C6.13126 46.6226 5.45931 46.401 4.83122 46.0843C4.20889 45.7701 3.64127 45.3582 3.15012 44.8643C2.65185 44.3763 2.23702 43.8102 1.92207 43.1885C1.60364 42.5628 1.38327 41.8922 1.26864 41.1999C1.14484 40.456 1.07786 39.7039 1.06828 38.9499C1.06065 38.6968 1.05066 37.8542 1.05066 37.8542V10.1335C1.05066 10.1335 1.0613 9.30381 1.06834 9.06005C1.07751 8.30727 1.1441 7.55628 1.26753 6.81357C1.38238 6.11939 1.60292 5.44679 1.92151 4.81905C2.23531 4.19783 2.64784 3.63133 3.1431 3.14151C3.63781 2.64704 4.20724 2.23302 4.83063 1.91454C5.45728 1.59881 6.12795 1.37877 6.82019 1.26182C7.56651 1.1401 8.32093 1.07429 9.07712 1.06494L10.1629 1.05029H133.831L134.93 1.06553C135.679 1.07441 136.427 1.13963 137.167 1.26064C137.866 1.37906 138.543 1.60063 139.177 1.91806C140.426 2.55988 141.442 3.57529 142.083 4.82198C142.397 5.44539 142.614 6.1125 142.727 6.80068C142.852 7.54948 142.922 8.30638 142.937 9.06533C142.94 9.40517 142.94 9.77021 142.94 10.1335C142.95 10.5835 142.95 11.0118 142.95 11.4436V36.5581C142.95 36.994 142.95 37.4194 142.94 37.8483C142.94 38.2385 142.94 38.596 142.935 38.9639C142.921 39.7093 142.853 40.4527 142.73 41.1881C142.617 41.8854 142.398 42.5613 142.08 43.1921C141.763 43.807 141.35 44.3682 140.858 44.855C140.366 45.3515 139.798 45.7658 139.174 46.082C138.542 46.4012 137.865 46.6236 137.167 46.7417C136.423 46.8629 135.671 46.9283 134.917 46.9374C134.565 46.9456 134.196 46.9503 133.837 46.9503L132.533 46.9527L10.1623 46.9503Z" fill="black"/>
<path d="M29.8061 24.3608C29.8191 23.3592 30.0859 22.3771 30.5817 21.506C31.0775 20.6348 31.7862 19.9029 32.6419 19.3783C32.0983 18.6041 31.3812 17.967 30.5475 17.5175C29.7137 17.0681 28.7864 16.8187 27.8391 16.7891C25.8184 16.5776 23.8593 17.9949 22.8296 17.9949C21.7799 17.9949 20.1945 16.8101 18.4872 16.8451C17.3829 16.8807 16.3067 17.2009 15.3634 17.7746C14.4201 18.3483 13.6419 19.1558 13.1047 20.1186C10.7774 24.1367 12.5133 30.0419 14.7427 33.2899C15.8581 34.8803 17.1617 36.6568 18.8674 36.5938C20.5365 36.5248 21.1599 35.5325 23.1747 35.5325C25.1708 35.5325 25.7557 36.5938 27.496 36.5538C29.2871 36.5248 30.4156 34.9563 31.4918 33.3508C32.2933 32.2176 32.9099 30.9651 33.3191 29.6398C32.2785 29.2009 31.3905 28.4663 30.7658 27.5275C30.1411 26.5888 29.8074 25.4874 29.8061 24.3608V24.3608Z" fill="white"/>
<path d="M26.519 14.6531C27.4956 13.484 27.9767 11.9814 27.8602 10.4644C26.3682 10.6206 24.99 11.3317 24.0003 12.4559C23.5163 13.0051 23.1457 13.644 22.9096 14.3361C22.6734 15.0283 22.5763 15.76 22.624 16.4896C23.3702 16.4972 24.1085 16.3359 24.7832 16.0178C25.4579 15.6997 26.0514 15.2331 26.519 14.6531Z" fill="white"/>
<path d="M50.9052 32.5667H45.2092L43.8413 36.5945H41.4287L46.8239 21.6929H49.3305L54.7257 36.5945H52.2719L50.9052 32.5667ZM45.7991 30.7081H50.3142L48.0884 24.1714H48.0261L45.7991 30.7081Z" fill="white"/>
<path d="M66.3775 31.1637C66.3775 34.5399 64.5654 36.709 61.8308 36.709C61.1381 36.7452 60.4491 36.5861 59.8429 36.2499C59.2366 35.9137 58.7376 35.4141 58.4028 34.8082H58.3511V40.1895H56.1147V25.7309H58.2794V27.5379H58.3206C58.6707 26.935 59.1782 26.438 59.7891 26.0997C60.3999 25.7615 61.0913 25.5948 61.7897 25.6172C64.5548 25.6172 66.3775 27.7969 66.3775 31.1637ZM64.0789 31.1637C64.0789 28.9641 62.939 27.518 61.1997 27.518C59.491 27.518 58.3417 28.9946 58.3417 31.1637C58.3417 33.3528 59.491 34.8188 61.1997 34.8188C62.939 34.8188 64.0789 33.3833 64.0789 31.1637Z" fill="white"/>
<path d="M78.3687 31.1637C78.3687 34.5399 76.5566 36.709 73.822 36.709C73.1293 36.7452 72.4403 36.586 71.8341 36.2499C71.2278 35.9137 70.7288 35.4141 70.394 34.8082H70.3423V40.1895H68.106V25.7309H70.2706V27.5379H70.3117C70.6619 26.935 71.1694 26.438 71.7802 26.0997C72.3911 25.7615 73.0825 25.5948 73.7808 25.6172C76.546 25.6172 78.3687 27.7969 78.3687 31.1637ZM76.0701 31.1637C76.0701 28.9641 74.9302 27.518 73.1909 27.518C71.4822 27.518 70.3329 28.9946 70.3329 31.1637C70.3329 33.3528 71.4822 34.8188 73.1909 34.8188C74.9302 34.8188 76.0701 33.3833 76.0701 31.1637H76.0701Z" fill="white"/>
<path d="M86.2941 32.4429C86.4598 33.9207 87.8994 34.8909 89.8666 34.8909C91.7516 34.8909 93.1077 33.9206 93.1077 32.5882C93.1077 31.4315 92.2898 30.739 90.3532 30.2644L88.4165 29.7991C85.6725 29.1382 84.3986 27.8585 84.3986 25.7819C84.3986 23.2108 86.6455 21.4448 89.8361 21.4448C92.9937 21.4448 95.1584 23.2108 95.2313 25.7819H92.9738C92.8386 24.2948 91.6059 23.3972 89.8043 23.3972C88.0028 23.3972 86.7701 24.3054 86.7701 25.6273C86.7701 26.6808 87.5574 27.3007 89.4835 27.7753L91.1299 28.1784C94.1959 28.9014 95.4698 30.1296 95.4698 32.3092C95.4698 35.0971 93.2429 36.8432 89.7009 36.8432C86.3869 36.8432 84.1494 35.1381 84.0049 32.4428L86.2941 32.4429Z" fill="white"/>
<path d="M100.296 23.1592V25.7303H102.368V27.4963H100.296V33.4857C100.296 34.4162 100.711 34.8498 101.622 34.8498C101.868 34.8455 102.113 34.8283 102.357 34.7982V36.5537C101.948 36.63 101.532 36.6645 101.115 36.6568C98.9096 36.6568 98.0493 35.8306 98.0493 33.7236V27.4963H96.4652V25.7303H98.0493V23.1592H100.296Z" fill="white"/>
<path d="M103.568 31.1636C103.568 27.7452 105.587 25.5972 108.735 25.5972C111.894 25.5972 113.903 27.7452 113.903 31.1636C113.903 34.5913 111.904 36.73 108.735 36.73C105.567 36.73 103.568 34.5913 103.568 31.1636ZM111.625 31.1636C111.625 28.8187 110.547 27.4347 108.735 27.4347C106.923 27.4347 105.847 28.8292 105.847 31.1636C105.847 33.5179 106.923 34.8913 108.735 34.8913C110.547 34.8913 111.625 33.5179 111.625 31.1636H111.625Z" fill="white"/>
<path d="M115.747 25.7308H117.88V27.58H117.932C118.076 27.0025 118.415 26.4921 118.893 26.1346C119.37 25.7771 119.956 25.5944 120.552 25.6171C120.81 25.6162 121.067 25.6441 121.319 25.7003V27.7863C120.993 27.6871 120.654 27.6416 120.314 27.6515C119.989 27.6384 119.665 27.6955 119.364 27.8189C119.064 27.9424 118.793 28.1293 118.572 28.3668C118.351 28.6042 118.183 28.8867 118.082 29.1947C117.98 29.5027 117.947 29.829 117.983 30.1511V36.5953H115.747L115.747 25.7308Z" fill="white"/>
<path d="M131.63 33.4042C131.329 35.3765 129.403 36.73 126.938 36.73C123.769 36.73 121.802 34.6124 121.802 31.2151C121.802 27.8073 123.78 25.5972 126.844 25.5972C129.859 25.5972 131.754 27.662 131.754 30.9562V31.7202H124.059V31.855C124.024 32.2548 124.074 32.6576 124.207 33.0366C124.339 33.4156 124.551 33.7622 124.828 34.0532C125.105 34.3443 125.442 34.5732 125.814 34.7248C126.187 34.8763 126.588 34.9471 126.99 34.9323C127.519 34.9817 128.049 34.8596 128.502 34.5843C128.956 34.309 129.308 33.8951 129.506 33.4042L131.63 33.4042ZM124.07 30.1616H129.517C129.537 29.8021 129.482 29.4423 129.356 29.1049C129.23 28.7674 129.036 28.4596 128.785 28.2007C128.534 27.9417 128.232 27.7373 127.898 27.6003C127.564 27.4632 127.205 27.3965 126.844 27.4042C126.48 27.402 126.119 27.4718 125.782 27.6095C125.445 27.7472 125.139 27.9501 124.881 28.2064C124.623 28.4628 124.419 28.7676 124.279 29.1031C124.14 29.4387 124.069 29.7985 124.07 30.1616V30.1616Z" fill="white"/>
<path d="M44.2097 13.5044H45.1698C45.3351 13.5249 45.5029 13.511 45.6625 13.4637C45.8222 13.4164 45.9702 13.3366 46.0974 13.2293C46.2246 13.1221 46.3282 12.9898 46.4015 12.8407C46.4749 12.6915 46.5164 12.5289 46.5236 12.363C46.5236 11.7026 46.0254 11.276 45.1804 11.276C45.0111 11.2525 44.8387 11.2629 44.6735 11.3069C44.5083 11.3508 44.3536 11.4273 44.2186 11.5318C44.0835 11.6364 43.9708 11.7668 43.8871 11.9155C43.8035 12.0642 43.7505 12.2281 43.7314 12.3975H42.6773C42.6954 12.09 42.7769 11.7894 42.9165 11.5146C43.0562 11.2398 43.2511 10.9966 43.4891 10.8002C43.7271 10.6037 44.0031 10.4582 44.3 10.3728C44.5968 10.2873 44.9081 10.2637 45.2145 10.3034C46.6282 10.3034 47.6236 11.0926 47.6236 12.2288C47.6269 12.6094 47.4992 12.9796 47.2618 13.2777C47.0244 13.5757 46.6917 13.7836 46.3192 13.8665V13.9508C46.7608 13.9704 47.1767 14.1635 47.476 14.4879C47.7753 14.8124 47.9335 15.2418 47.9162 15.6823C47.8835 15.999 47.7878 16.3059 47.6346 16.5852C47.4814 16.8645 47.2738 17.1105 47.0241 17.3088C46.7743 17.507 46.4873 17.6536 46.18 17.7398C45.8728 17.8261 45.5513 17.8503 45.2345 17.811C44.917 17.8542 44.5941 17.8331 44.2849 17.7492C43.9758 17.6652 43.6868 17.5201 43.4351 17.3224C43.1834 17.1246 42.9742 16.8784 42.82 16.5984C42.6658 16.3183 42.5697 16.0101 42.5375 15.6923H43.6081C43.6727 16.3772 44.3038 16.8191 45.2345 16.8191C46.1652 16.8191 46.7728 16.3228 46.7728 15.6232C46.7728 14.9136 46.2005 14.4765 45.2004 14.4765H44.2097V13.5044Z" fill="white"/>
<path d="M49.1326 16.1091C49.1326 15.1364 49.86 14.5757 51.148 14.496L52.6158 14.4116V13.9452C52.6158 13.3745 52.2385 13.0522 51.5064 13.0522C50.9094 13.0522 50.4969 13.2708 50.3771 13.6528H49.3417C49.451 12.7247 50.3277 12.1294 51.5569 12.1294C52.9154 12.1294 53.6816 12.8038 53.6816 13.9452V17.6372H52.651V16.8778H52.5664C52.3947 17.1502 52.1535 17.3723 51.8676 17.5213C51.5816 17.6704 51.2611 17.7411 50.9388 17.7262C50.7113 17.7498 50.4814 17.7256 50.2639 17.6552C50.0464 17.5847 49.8461 17.4696 49.6759 17.3173C49.5057 17.1649 49.3694 16.9787 49.2759 16.7706C49.1823 16.5625 49.1335 16.3371 49.1326 16.1091V16.1091ZM52.6158 15.6473V15.1956L51.2925 15.28C50.5462 15.3298 50.2078 15.5829 50.2078 16.0593C50.2078 16.5456 50.6308 16.8286 51.2126 16.8286C51.3831 16.8458 51.5552 16.8286 51.7189 16.7781C51.8826 16.7276 52.0344 16.6448 52.1653 16.5346C52.2962 16.4244 52.4036 16.2891 52.4809 16.1366C52.5583 15.9842 52.6042 15.8178 52.6158 15.6473V15.6473Z" fill="white"/>
<path d="M56.5197 13.1315V17.6374H55.4503V12.2339H59.0182V13.1315L56.5197 13.1315Z" fill="white"/>
<path d="M65.499 14.9332C65.499 16.6499 64.6282 17.7263 63.2603 17.7263C62.9245 17.7492 62.5892 17.6759 62.2937 17.5151C61.9983 17.3543 61.7551 17.1127 61.5927 16.8187H61.5081V19.4337H60.4387V12.2337H61.4682V13.1267H61.5481C61.7133 12.8225 61.9597 12.5697 62.26 12.3963C62.5603 12.2229 62.9028 12.1356 63.2497 12.1441C64.6282 12.1441 65.499 13.2158 65.499 14.9332ZM64.399 14.9332C64.399 13.7917 63.8573 13.1021 62.9512 13.1021C62.0511 13.1021 61.4882 13.8064 61.4882 14.9378C61.4882 16.064 62.0511 16.7689 62.9465 16.7689C63.8573 16.7689 64.399 16.0792 64.399 14.9332Z" fill="white"/>
<path d="M66.9233 19.5728V18.6546C67.0391 18.6693 67.1557 18.6759 67.2723 18.6745C67.5002 18.6913 67.7262 18.6237 67.9071 18.4845C68.088 18.3453 68.2109 18.1445 68.2524 17.9204L68.3323 17.6573L66.371 12.2339H67.5356L68.8941 16.5259H68.9787L70.3325 12.2339H71.4665L69.4464 17.8606C68.9834 19.1755 68.4711 19.5974 67.3664 19.5974C67.2771 19.5974 67.0232 19.5874 66.9233 19.5728Z" fill="white"/>
<path d="M72.2998 16.1044H73.3645C73.4691 16.5808 73.9169 16.8292 74.5432 16.8292C75.2554 16.8292 75.6925 16.5163 75.6925 16.03C75.6925 15.5091 75.3 15.2607 74.5432 15.2607H73.7323V14.4322H74.5291C75.1754 14.4322 75.5045 14.1843 75.5045 13.7326C75.5045 13.3359 75.186 13.033 74.5291 13.033C73.9309 13.033 73.4938 13.2861 73.4244 13.7127H72.3938C72.4709 13.2225 72.7378 12.7821 73.1371 12.4861C73.5364 12.1902 74.0362 12.0623 74.5291 12.13C75.8171 12.13 76.5539 12.7107 76.5539 13.6236C76.5599 13.8778 76.4782 14.1264 76.3225 14.3277C76.1668 14.5291 75.9465 14.6711 75.6984 14.7299V14.8142C75.9937 14.8522 76.2648 14.997 76.4602 15.2211C76.6556 15.4452 76.7617 15.7331 76.7584 16.03C76.7584 17.0572 75.8817 17.7369 74.5432 17.7369C73.3598 17.7368 72.3985 17.196 72.2998 16.1044Z" fill="white"/>
<path d="M78.2985 17.6374V12.2339H79.3585V15.9505H79.4431L81.9403 12.2339H83.0003V17.6374H81.9403V13.9009H81.8604L79.3585 17.6374L78.2985 17.6374Z" fill="white"/>
<path d="M88.8397 13.1315H87.1333V17.6373H86.0627V13.1315H84.3563V12.2339H88.8397V13.1315Z" fill="white"/>
<path d="M94.6002 16.1783C94.4545 16.6721 94.1394 17.0992 93.7101 17.385C93.2807 17.6707 92.7643 17.7969 92.2511 17.7416C91.8941 17.751 91.5393 17.6828 91.2114 17.5418C90.8835 17.4007 90.5902 17.1902 90.3521 16.9249C90.1139 16.6595 89.9365 16.3456 89.8322 16.005C89.7279 15.6645 89.6991 15.3053 89.748 14.9525C89.7004 14.5987 89.7297 14.2388 89.8338 13.8971C89.9378 13.5555 90.1143 13.2402 90.3512 12.9725C90.5881 12.7048 90.8799 12.491 91.2069 12.3456C91.5339 12.2001 91.8883 12.1264 92.2464 12.1295C93.7541 12.1295 94.6648 13.1567 94.6648 14.8535V15.2256H90.8385V15.2854C90.8216 15.4837 90.8464 15.6834 90.9115 15.8716C90.9766 16.0598 91.0804 16.2323 91.2163 16.3781C91.3522 16.5239 91.5172 16.6397 91.7007 16.7181C91.8841 16.7965 92.082 16.8358 92.2816 16.8334C92.5373 16.8638 92.7962 16.8178 93.0255 16.7012C93.2549 16.5845 93.4443 16.4025 93.5696 16.1783L94.6002 16.1783ZM90.8385 14.4369H93.5743C93.5878 14.2557 93.5631 14.0736 93.5019 13.9024C93.4407 13.7312 93.3442 13.5747 93.2187 13.4428C93.0932 13.311 92.9415 13.2068 92.7732 13.137C92.6049 13.0671 92.4239 13.0331 92.2416 13.0371C92.0566 13.0346 91.873 13.0691 91.7016 13.1386C91.5302 13.208 91.3745 13.3111 91.2437 13.4416C91.1129 13.572 91.0096 13.7274 90.94 13.8983C90.8704 14.0693 90.8359 14.2524 90.8385 14.4369H90.8385Z" fill="white"/>
<path d="M99.134 12.2339H101.577C102.637 12.2339 103.259 12.7694 103.259 13.6079C103.261 13.8739 103.17 14.1325 103.004 14.3403C102.837 14.548 102.604 14.6924 102.343 14.7493V14.8337C102.66 14.8536 102.957 14.994 103.172 15.2258C103.388 15.4576 103.506 15.7632 103.502 16.0794C103.502 17.0221 102.791 17.6374 101.602 17.6374H99.134V12.2339ZM100.194 13.0524V14.4516H101.254C101.9 14.4516 102.209 14.2038 102.209 13.7468C102.209 13.3255 101.94 13.0524 101.373 13.0524L100.194 13.0524ZM100.194 15.2357V16.8189H101.462C102.094 16.8189 102.433 16.5405 102.433 16.0296C102.433 15.4888 102.05 15.2357 101.328 15.2357L100.194 15.2357Z" fill="white"/>
</g>
<defs>
<clipPath id="clip0_852_1033">
<rect width="144" height="48" fill="white"/>
</clipPath>
</defs>
</svg>
