<svg width="235" height="70" viewBox="0 0 235 70" fill="none" xmlns="http://www.w3.org/2000/svg">
<path d="M226.296 0H8.7037C3.89678 0 0 3.91751 0 8.75V61.25C0 66.0825 3.89678 70 8.7037 70H226.296C231.103 70 235 66.0825 235 61.25V8.75C235 3.91751 231.103 0 226.296 0Z" fill="black"/>
<path d="M226.296 1.4C228.235 1.4 230.095 2.17437 231.466 3.55276C232.837 4.93116 233.607 6.80066 233.607 8.75V61.25C233.607 63.1993 232.837 65.0688 231.466 66.4472C230.095 67.8256 228.235 68.6 226.296 68.6H8.7037C6.76468 68.6 4.90507 67.8256 3.53397 66.4472C2.16287 65.0688 1.39259 63.1993 1.39259 61.25V8.75C1.39259 6.80066 2.16287 4.93116 3.53397 3.55276C4.90507 2.17437 6.76468 1.4 8.7037 1.4H226.296ZM226.296 0H8.7037C6.39534 0 4.18152 0.921872 2.54926 2.56282C0.916995 4.20376 0 6.42936 0 8.75V61.25C0 63.5706 0.916995 65.7962 2.54926 67.4372C4.18152 69.0781 6.39534 70 8.7037 70H226.296C228.605 70 230.818 69.0781 232.451 67.4372C234.083 65.7962 235 63.5706 235 61.25V8.75C235 6.42936 234.083 4.20376 232.451 2.56282C230.818 0.921872 228.605 0 226.296 0Z" fill="#A6A6A6"/>
<path d="M118.614 38.0624C117.147 38.0658 115.715 38.5064 114.497 39.3285C113.28 40.1505 112.332 41.3171 111.774 42.6806C111.216 44.0442 111.072 45.5435 111.362 46.9889C111.651 48.4343 112.361 49.761 113.4 50.8012C114.44 51.8413 115.763 52.5482 117.202 52.8325C118.641 53.1167 120.132 52.9656 121.485 52.3981C122.839 51.8307 123.995 50.8725 124.807 49.6446C125.619 48.4167 126.05 46.9743 126.047 45.4999C126.061 44.5162 125.878 43.5398 125.509 42.6287C125.14 41.7176 124.593 40.8905 123.899 40.1965C123.206 39.5025 122.381 38.956 121.473 38.5893C120.565 38.2227 119.592 38.0435 118.614 38.0624V38.0624ZM118.614 50.0149C117.715 50.0781 116.818 49.8679 116.039 49.4118C115.261 48.9556 114.637 48.2746 114.248 47.4571C113.86 46.6397 113.725 45.7236 113.861 44.8281C113.998 43.9326 114.399 43.099 115.012 42.4357C115.626 41.7724 116.424 41.31 117.303 41.1087C118.182 40.9074 119.1 40.9765 119.939 41.307C120.778 41.6375 121.499 42.2141 122.008 42.9618C122.516 43.7096 122.79 44.5939 122.792 45.4999C122.82 46.0739 122.733 46.6477 122.537 47.1876C122.341 47.7274 122.04 48.2224 121.65 48.6432C121.261 49.064 120.792 49.4021 120.27 49.6377C119.749 49.8733 119.186 50.0015 118.614 50.0149ZM102.39 38.0624C100.924 38.0658 99.491 38.5064 98.2734 39.3285C97.0559 40.1505 96.1081 41.3171 95.5501 42.6806C94.992 44.0442 94.8486 45.5435 95.1381 46.9889C95.4277 48.4343 96.137 49.761 97.1765 50.8012C98.216 51.8413 99.539 52.5482 100.978 52.8325C102.417 53.1167 103.908 52.9656 105.262 52.3981C106.615 51.8307 107.771 50.8725 108.583 49.6446C109.395 48.4167 109.827 46.9743 109.823 45.4999C109.838 44.5162 109.655 43.5398 109.286 42.6287C108.917 41.7176 108.369 40.8905 107.676 40.1965C106.982 39.5025 106.157 38.956 105.249 38.5893C104.341 38.2227 103.369 38.0435 102.39 38.0624V38.0624ZM102.39 50.0149C101.491 50.0781 100.594 49.8679 99.8157 49.4118C99.0372 48.9556 98.4131 48.2746 98.0246 47.4571C97.6362 46.6397 97.5013 45.7236 97.6376 44.8281C97.7738 43.9326 98.1749 43.099 98.7887 42.4357C99.4025 41.7724 100.201 41.31 101.079 41.1087C101.958 40.9074 102.876 40.9765 103.715 41.307C104.554 41.6375 105.275 42.2141 105.784 42.9618C106.293 43.7096 106.566 44.5939 106.568 45.4999C106.596 46.0739 106.51 46.6477 106.314 47.1876C106.117 47.7274 105.816 48.2224 105.426 48.6432C105.037 49.064 104.568 49.4021 104.046 49.6377C103.525 49.8733 102.962 50.0015 102.39 50.0149ZM83.103 40.3549V43.5049H90.623C90.505 44.9885 89.8916 46.3885 88.8822 47.4774C88.1279 48.25 87.2206 48.8549 86.2191 49.2528C85.2176 49.6507 84.1441 49.8328 83.0681 49.7874C80.8521 49.7874 78.7268 48.9024 77.1599 47.3271C75.5929 45.7518 74.7126 43.6152 74.7126 41.3874C74.7126 39.1595 75.5929 37.023 77.1599 35.4477C78.7268 33.8724 80.8521 32.9874 83.0681 32.9874C85.1926 32.9556 87.244 33.7667 88.7778 35.2449L90.9885 33.0224C89.951 31.9908 88.7191 31.1777 87.3651 30.6308C86.011 30.0839 84.562 29.8141 83.103 29.8374C81.5554 29.7768 80.0117 30.031 78.5642 30.5846C77.1167 31.1382 75.7953 31.9798 74.6791 33.0591C73.5629 34.1384 72.6749 35.4331 72.0684 36.8657C71.4618 38.2983 71.1492 39.8392 71.1492 41.3961C71.1492 42.953 71.4618 44.494 72.0684 45.9265C72.6749 47.3591 73.5629 48.6538 74.6791 49.7331C75.7953 50.8124 77.1167 51.6541 78.5642 52.2077C80.0117 52.7613 81.5554 53.0154 83.103 52.9549C84.592 53.0146 86.0768 52.7571 87.4599 52.1991C88.8429 51.6412 90.0929 50.7954 91.1278 49.7174C92.9558 47.6986 93.9298 45.0434 93.8433 42.3149C93.8496 41.6581 93.7971 41.0022 93.6867 40.3549H83.103ZM161.976 42.8049C161.522 41.4622 160.673 40.2897 159.541 39.4428C158.41 38.596 157.049 38.1146 155.64 38.0624C154.687 38.0605 153.745 38.255 152.871 38.6338C151.996 39.0126 151.208 39.5677 150.556 40.2648C149.903 40.9619 149.4 41.7861 149.076 42.6865C148.753 43.587 148.617 44.5445 148.677 45.4999C148.662 47.0973 149.161 48.6568 150.101 49.9453C151.04 51.2338 152.369 52.1822 153.889 52.6489C155.409 53.1155 157.038 53.0753 158.533 52.5343C160.028 51.9934 161.309 50.9806 162.185 49.6474L159.661 47.8974C159.284 48.5278 158.751 49.0485 158.113 49.4077C157.474 49.7668 156.754 49.952 156.023 49.9449C155.268 49.9762 154.522 49.7773 153.882 49.3744C153.242 48.9715 152.738 48.3834 152.437 47.6874L162.341 43.5749L161.976 42.8049ZM151.88 45.2899C151.844 44.7463 151.917 44.2011 152.094 43.6862C152.271 43.1713 152.548 42.6971 152.91 42.2913C153.271 41.8855 153.71 41.5563 154.199 41.3229C154.689 41.0896 155.22 40.9568 155.761 40.9324C156.322 40.8979 156.881 41.0307 157.367 41.314C157.853 41.5973 158.245 42.0185 158.494 42.5249L151.88 45.2899ZM143.837 52.4999H147.093V30.6249H143.837V52.4999ZM138.511 39.7249H138.389C137.903 39.1681 137.302 38.7235 136.629 38.4215C135.957 38.1195 135.227 37.9671 134.49 37.9749C132.587 38.0676 130.793 38.8926 129.48 40.2789C128.166 41.6652 127.433 43.5064 127.433 45.4211C127.433 47.3358 128.166 49.1771 129.48 50.5633C130.793 51.9496 132.587 52.7746 134.49 52.8674C135.228 52.8822 135.96 52.7331 136.634 52.4306C137.308 52.1281 137.907 51.6797 138.389 51.1174H138.511V52.1849C138.511 55.0374 136.996 56.5599 134.559 56.5599C133.745 56.5419 132.955 56.2811 132.288 55.8106C131.622 55.3401 131.11 54.6811 130.817 53.9174L127.997 55.0899C128.518 56.4063 129.425 57.5327 130.596 58.3201C131.768 59.1075 133.15 59.5189 134.559 59.4999C138.371 59.4999 141.522 57.2424 141.522 51.7474V38.4999H138.511V39.7249ZM134.768 50.0149C133.628 49.9434 132.557 49.4375 131.775 48.6003C130.992 47.763 130.557 46.6574 130.557 45.5086C130.557 44.3598 130.992 43.2542 131.775 42.417C132.557 41.5797 133.628 41.0738 134.768 41.0024C135.326 41.0265 135.873 41.1632 136.376 41.4042C136.88 41.6452 137.331 41.9857 137.701 42.4053C138.071 42.8249 138.354 43.3151 138.532 43.8467C138.71 44.3784 138.78 44.9406 138.737 45.4999C138.785 46.0611 138.718 46.6261 138.542 47.1609C138.366 47.6956 138.084 48.1889 137.713 48.611C137.342 49.033 136.89 49.3751 136.384 49.6164C135.878 49.8577 135.328 49.9932 134.768 50.0149V50.0149ZM177.225 30.6249H169.426V52.4999H172.681V44.2049H177.225C178.153 44.2719 179.084 44.146 179.961 43.8351C180.838 43.5243 181.643 43.035 182.323 42.398C183.004 41.7609 183.547 40.9897 183.919 40.1323C184.29 39.275 184.482 38.3499 184.482 37.4149C184.482 36.4798 184.29 35.5547 183.919 34.6974C183.547 33.8401 183.004 33.0688 182.323 32.4318C181.643 31.7947 180.838 31.3055 179.961 30.9946C179.084 30.6837 178.153 30.5579 177.225 30.6249V30.6249ZM177.225 41.1249H172.681V33.6699H177.294C177.784 33.6699 178.268 33.7667 178.72 33.9549C179.172 34.1431 179.583 34.419 179.929 34.7667C180.274 35.1145 180.549 35.5274 180.736 35.9817C180.923 36.4361 181.02 36.9231 181.02 37.4149C181.02 37.9067 180.923 38.3937 180.736 38.848C180.549 39.3024 180.274 39.7152 179.929 40.063C179.583 40.4107 179.172 40.6866 178.72 40.8748C178.268 41.063 177.784 41.1599 177.294 41.1599L177.225 41.1249ZM197.313 37.9924C196.128 37.9189 194.947 38.1963 193.916 38.7904C192.886 39.3845 192.052 40.2691 191.516 41.3349L194.389 42.5424C194.679 42.0163 195.114 41.586 195.642 41.3034C196.171 41.0208 196.769 40.898 197.365 40.9499C197.778 40.9013 198.197 40.936 198.597 41.0519C198.997 41.1678 199.369 41.3626 199.693 41.6249C200.018 41.8871 200.286 42.2117 200.484 42.5795C200.682 42.9474 200.806 43.3512 200.847 43.7674V43.9774C199.8 43.4242 198.635 43.1359 197.452 43.1374C194.354 43.1374 191.186 44.8874 191.186 48.0724C191.216 48.7493 191.382 49.4132 191.673 50.0246C191.964 50.6359 192.374 51.1823 192.879 51.6312C193.384 52.0801 193.973 52.4224 194.612 52.6378C195.251 52.8531 195.927 52.9371 196.599 52.8849C197.416 52.9303 198.23 52.7565 198.958 52.3813C199.686 52.0062 200.302 51.4431 200.742 50.7499H200.847V52.4999H203.98V44.0824C203.98 40.2499 201.09 38.0274 197.383 38.0274L197.313 37.9924ZM196.913 49.9799C195.851 49.9799 194.371 49.4374 194.371 48.1249C194.371 46.3749 196.216 45.7799 197.853 45.7799C198.887 45.7542 199.909 46.008 200.812 46.5149C200.703 47.4652 200.254 48.3436 199.55 48.9871C198.846 49.6307 197.934 49.9958 196.982 50.0149L196.913 49.9799ZM215.399 38.4999L211.674 47.9849H211.57L207.705 38.4999H204.224L210.02 51.7649L206.713 59.1324H210.107L219.02 38.4999H215.399ZM186.155 52.4999H189.393V30.6249H186.155V52.4999Z" fill="white"/>
<path d="M18.1733 13.1948C17.5997 13.8766 17.307 14.7531 17.3551 15.6448V54.3548C17.2959 55.2479 17.59 56.1285 18.1733 56.8048L18.2951 56.9448L39.8629 35.2623V34.7373L18.2951 13.0723L18.1733 13.1948Z" fill="url(#paint0_linear_550_1753)"/>
<path d="M46.9999 42.4898L39.8629 35.2623V34.7373L46.9999 27.5098L47.1566 27.6148L55.7037 32.4798C58.1407 33.8623 58.1407 36.1373 55.7037 37.5373L47.1914 42.4023L46.9999 42.4898Z" fill="url(#paint1_linear_550_1753)"/>
<path d="M47.2088 42.385L39.8629 35L18.1733 56.805C18.6652 57.2452 19.2948 57.4984 19.9529 57.5208C20.6111 57.5431 21.2563 57.3332 21.7766 56.9275L47.2088 42.385" fill="url(#paint2_linear_550_1753)"/>
<path d="M47.2088 27.6153L21.7766 13.0903C21.2597 12.6789 20.615 12.4639 19.9559 12.4831C19.2969 12.5023 18.6657 12.7545 18.1733 13.1953L39.8629 35.0003L47.2088 27.6153Z" fill="url(#paint3_linear_550_1753)"/>
<path opacity="0.2" d="M46.9999 42.228L21.7766 56.6655C21.2752 57.046 20.6641 57.2518 20.0359 57.2518C19.4077 57.2518 18.7966 57.046 18.2951 56.6655V56.6655L18.1733 56.788L18.2951 56.928C18.7966 57.3085 19.4077 57.5143 20.0359 57.5143C20.6641 57.5143 21.2752 57.3085 21.7766 56.928L47.2088 42.3855L46.9999 42.228Z" fill="black"/>
<path opacity="0.12" d="M18.1734 56.5598C17.6142 55.8657 17.3402 54.9829 17.4074 54.0923V54.3548C17.3482 55.248 17.6423 56.1285 18.2256 56.8048L18.3475 56.6823L18.1734 56.5598Z" fill="black"/>
<path opacity="0.12" d="M55.7037 37.275L47 42.2275L47.1567 42.385L55.7037 37.52C56.2082 37.3055 56.6459 36.9583 56.9706 36.5148C57.2953 36.0713 57.4951 35.548 57.5489 35C57.4401 35.498 57.2164 35.9633 56.8959 36.3585C56.5754 36.7536 56.167 37.0676 55.7037 37.275Z" fill="black"/>
<path opacity="0.25" d="M21.7766 13.3352L55.7037 32.7252C56.167 32.9326 56.5753 33.2466 56.8958 33.6417C57.2163 34.0369 57.44 34.5022 57.5489 35.0002C57.4951 34.4522 57.2953 33.9289 56.9706 33.4854C56.6459 33.0419 56.2082 32.6947 55.7037 32.4802L21.7766 13.0902C19.357 11.6902 17.3552 12.8452 17.3552 15.6452V15.9077C17.4074 13.1077 19.357 11.9527 21.7766 13.3352Z" fill="white"/>
<path d="M73.3026 24.9725H72.0319V21.4725H73.1111C73.5967 20.9425 73.9619 20.3128 74.1813 19.6268C74.4007 18.9409 74.4691 18.2152 74.3819 17.5V12.25H81.3448V21.455H82.5111V24.955H81.223V22.75H73.3026V24.9725ZM75.7222 17.5C75.7999 18.9058 75.4541 20.3024 74.73 21.5075H79.9522V13.545H75.7222V17.5Z" fill="white" stroke="white" stroke-width="0.411304" stroke-miterlimit="10"/>
<path d="M92.9729 21.3851C92.4716 21.8905 91.8761 22.2914 91.2204 22.5649C90.5648 22.8385 89.8619 22.9793 89.152 22.9793C88.4421 22.9793 87.7392 22.8385 87.0835 22.5649C86.4279 22.2914 85.8324 21.8905 85.3311 21.3851C84.3352 20.3395 83.7793 18.9478 83.7793 17.5001C83.7793 16.0525 84.3352 14.6608 85.3311 13.6151C85.8324 13.1098 86.4279 12.7089 87.0835 12.4354C87.7392 12.1618 88.4421 12.021 89.152 12.021C89.8619 12.021 90.5648 12.1618 91.2204 12.4354C91.8761 12.7089 92.4716 13.1098 92.9729 13.6151C93.4758 14.1261 93.8719 14.7331 94.138 15.4003C94.4041 16.0675 94.5347 16.7814 94.5222 17.5001C94.5428 18.2199 94.4158 18.9362 94.1493 19.6046C93.8828 20.2729 93.4824 20.879 92.9729 21.3851V21.3851ZM86.3059 20.5101C86.6727 20.8931 87.1138 21.1963 87.6018 21.401C88.0899 21.6057 88.6145 21.7075 89.1433 21.7001C89.6725 21.7107 90.1981 21.6103 90.6866 21.4054C91.1751 21.2006 91.6158 20.8957 91.9807 20.5101C92.7318 19.6896 93.1487 18.6152 93.1487 17.5001C93.1487 16.385 92.7318 15.3107 91.9807 14.4901C91.6158 14.1046 91.1751 13.7997 90.6866 13.5948C90.1981 13.39 89.6725 13.2896 89.1433 13.3001C88.6145 13.2928 88.0899 13.3946 87.6018 13.5993C87.1138 13.804 86.6727 14.1072 86.3059 14.4901C85.5658 15.3162 85.1563 16.3885 85.1563 17.5001C85.1563 18.6118 85.5658 19.6841 86.3059 20.5101Z" fill="white" stroke="white" stroke-width="0.411304" stroke-miterlimit="10"/>
<path d="M101.276 22.9782C100.572 22.9893 99.8727 22.857 99.2205 22.5894C98.5684 22.3217 97.9768 21.9242 97.4815 21.4207C96.4771 20.3654 95.9164 18.9612 95.9164 17.5007C95.9164 16.0401 96.4771 14.6359 97.4815 13.5807C97.9849 13.0685 98.5878 12.6659 99.2526 12.398C99.9174 12.1301 100.63 12.0025 101.346 12.0232C102.075 12.0024 102.799 12.1493 103.462 12.4526C104.126 12.7559 104.712 13.2076 105.176 13.7732L104.253 14.6832C103.911 14.2411 103.468 13.8881 102.963 13.6536C102.457 13.4191 101.902 13.3101 101.346 13.3357C100.81 13.3219 100.277 13.4189 99.7801 13.6206C99.2831 13.8223 98.8325 14.1244 98.4563 14.5082C97.7065 15.3363 97.2909 16.4158 97.2909 17.5357C97.2909 18.6555 97.7065 19.735 98.4563 20.5632C98.8325 20.947 99.2831 21.2491 99.7801 21.4508C100.277 21.6524 100.81 21.7494 101.346 21.7357C101.944 21.7186 102.531 21.5703 103.066 21.3013C103.602 21.0323 104.072 20.649 104.444 20.1782L105.384 21.1057C104.908 21.6802 104.314 22.1456 103.644 22.4707C102.903 22.8185 102.094 22.992 101.276 22.9782Z" fill="white" stroke="white" stroke-width="0.411304" stroke-miterlimit="10"/>
<path d="M110.85 22.75H109.51V13.545H106.586V12.25H113.757V13.545H110.85V22.75Z" fill="white" stroke="white" stroke-width="0.411304" stroke-miterlimit="10"/>
<path d="M122.983 12.25L119.032 21.105C118.936 21.46 118.765 21.7899 118.529 22.0717C118.294 22.3534 118.001 22.5804 117.67 22.7369C117.338 22.8934 116.977 22.9756 116.611 22.9779C116.245 22.9801 115.883 22.9024 115.55 22.75L115.899 21.5075C116.111 21.6278 116.351 21.6939 116.595 21.7C116.852 21.713 117.108 21.6458 117.326 21.5075C117.537 21.3306 117.699 21.1014 117.796 20.8425L118.179 20.0025L114.697 12.25H116.281L118.858 18.27L121.399 12.25H122.983Z" fill="white" stroke="white" stroke-width="0.411304" stroke-miterlimit="10"/>
<path d="M124.498 22.75V12.25H132.053V22.75H130.712V13.545H125.838V22.75H124.498Z" fill="white" stroke="white" stroke-width="0.411304" stroke-miterlimit="10"/>
<path d="M134.437 22.75V12.25H135.778V16.7475H141V12.25H142.358V22.75H141V18.0075H135.778V22.75H134.437Z" fill="white" stroke="white" stroke-width="0.411304" stroke-miterlimit="10"/>
<path d="M153.29 21.3851C152.787 21.891 152.19 22.2923 151.533 22.5661C150.876 22.8399 150.171 22.9808 149.46 22.9808C148.749 22.9808 148.044 22.8399 147.387 22.5661C146.73 22.2923 146.133 21.891 145.63 21.3851C144.634 20.3395 144.079 18.9478 144.079 17.5001C144.079 16.0525 144.634 14.6608 145.63 13.6151C146.132 13.1098 146.727 12.7089 147.383 12.4354C148.038 12.1618 148.741 12.021 149.451 12.021C150.161 12.021 150.864 12.1618 151.52 12.4354C152.175 12.7089 152.771 13.1098 153.272 13.6151C154.26 14.6648 154.811 16.055 154.811 17.5001C154.811 18.9452 154.26 20.3355 153.272 21.3851H153.29ZM146.623 20.5101C146.987 20.8957 147.428 21.2006 147.917 21.4054C148.405 21.6103 148.931 21.7107 149.46 21.7001C149.989 21.7075 150.513 21.6057 151.001 21.401C151.49 21.1963 151.931 20.8931 152.297 20.5101C153.037 19.6841 153.447 18.6118 153.447 17.5001C153.447 16.3885 153.037 15.3162 152.297 14.4901C151.931 14.1072 151.49 13.804 151.001 13.5993C150.513 13.3946 149.989 13.2928 149.46 13.3001C148.931 13.2896 148.405 13.39 147.917 13.5948C147.428 13.7997 146.987 14.1046 146.623 14.4901C145.871 15.3107 145.455 16.385 145.455 17.5001C145.455 18.6152 145.871 19.6896 146.623 20.5101V20.5101Z" fill="white" stroke="white" stroke-width="0.411304" stroke-miterlimit="10"/>
<path d="M160.305 22.7502V12.2502H164.082C164.865 12.2423 165.623 12.5294 166.206 13.0552C166.497 13.3089 166.729 13.6239 166.885 13.9777C167.041 14.3315 167.119 14.7155 167.111 15.1027C167.115 15.5741 166.982 16.0364 166.728 16.4327C166.471 16.8084 166.116 17.1052 165.701 17.2902V17.2902C166.204 17.4629 166.645 17.7791 166.972 18.2002C167.292 18.629 167.463 19.1516 167.459 19.6877C167.468 20.0911 167.389 20.4915 167.226 20.8605C167.064 21.2295 166.822 21.558 166.519 21.8227C165.915 22.3879 165.116 22.6953 164.291 22.6802L160.305 22.7502ZM161.645 16.7477H164.082C164.31 16.7609 164.538 16.7222 164.749 16.6343C164.96 16.5464 165.149 16.4117 165.301 16.2402C165.596 15.9494 165.765 15.5531 165.771 15.1377C165.787 14.7209 165.644 14.3137 165.37 14.0002C165.224 13.837 165.044 13.7084 164.842 13.6237C164.64 13.5389 164.422 13.5002 164.204 13.5102H161.697L161.645 16.7477ZM161.645 21.4552H164.361C164.596 21.4631 164.831 21.4186 165.048 21.3248C165.264 21.231 165.458 21.0903 165.614 20.9127C165.915 20.5899 166.083 20.1648 166.084 19.7227C166.073 19.2842 165.9 18.8658 165.597 18.5502C165.429 18.373 165.226 18.2332 165.001 18.1398C164.776 18.0463 164.534 18.0013 164.291 18.0077H161.645V21.4552Z" fill="white" stroke="white" stroke-width="0.411304" stroke-miterlimit="10"/>
<defs>
<linearGradient id="paint0_linear_550_1753" x1="37.9481" y1="15.2423" x2="8.58352" y2="44.4515" gradientUnits="userSpaceOnUse">
<stop stop-color="#00A0FF"/>
<stop offset="0.01" stop-color="#00A1FF"/>
<stop offset="0.26" stop-color="#00BEFF"/>
<stop offset="0.51" stop-color="#00D2FF"/>
<stop offset="0.76" stop-color="#00DFFF"/>
<stop offset="1" stop-color="#00E3FF"/>
</linearGradient>
<linearGradient id="paint1_linear_550_1753" x1="58.8892" y1="34.9998" x2="16.7807" y2="34.9998" gradientUnits="userSpaceOnUse">
<stop stop-color="#FFE000"/>
<stop offset="0.41" stop-color="#FFBD00"/>
<stop offset="0.78" stop-color="#FFA500"/>
<stop offset="1" stop-color="#FF9C00"/>
</linearGradient>
<linearGradient id="paint2_linear_550_1753" x1="43.2225" y1="39.025" x2="3.3932" y2="78.6262" gradientUnits="userSpaceOnUse">
<stop stop-color="#FF3A44"/>
<stop offset="1" stop-color="#C31162"/>
</linearGradient>
<linearGradient id="paint3_linear_550_1753" x1="12.7074" y1="0.315313" x2="30.4871" y2="18.001" gradientUnits="userSpaceOnUse">
<stop stop-color="#32A071"/>
<stop offset="0.07" stop-color="#2DA771"/>
<stop offset="0.48" stop-color="#15CF74"/>
<stop offset="0.8" stop-color="#06E775"/>
<stop offset="1" stop-color="#00F076"/>
</linearGradient>
</defs>
</svg>
