<svg width="162" height="48" viewBox="0 0 162 48" fill="none" xmlns="http://www.w3.org/2000/svg">
<g clip-path="url(#clip0_852_1032)">
<path d="M155.175 0H5.96825C2.67208 0 0 2.68629 0 6V42C0 45.3137 2.67208 48 5.96825 48H155.175C158.471 48 161.143 45.3137 161.143 42V6C161.143 2.68629 158.471 0 155.175 0Z" fill="black"/>
<path d="M155.175 0.96C156.504 0.96 157.779 1.491 158.72 2.43618C159.66 3.38137 160.188 4.66331 160.188 6V42C160.188 43.3367 159.66 44.6186 158.72 45.5638C157.779 46.509 156.504 47.04 155.175 47.04H5.96825C4.63864 47.04 3.36347 46.509 2.42329 45.5638C1.48311 44.6186 0.954921 43.3367 0.954921 42V6C0.954921 4.66331 1.48311 3.38137 2.42329 2.43618C3.36347 1.491 4.63864 0.96 5.96825 0.96H155.175ZM155.175 0H5.96825C4.38537 0 2.86733 0.632141 1.74806 1.75736C0.628796 2.88258 0 4.4087 0 6V42C0 43.5913 0.628796 45.1174 1.74806 46.2426C2.86733 47.3679 4.38537 48 5.96825 48H155.175C156.757 48 158.276 47.3679 159.395 46.2426C160.514 45.1174 161.143 43.5913 161.143 42V6C161.143 4.4087 160.514 2.88258 159.395 1.75736C158.276 0.632141 156.757 0 155.175 0Z" fill="#A6A6A6"/>
<path d="M81.3353 26.0996C80.3296 26.102 79.3472 26.4041 78.5123 26.9678C77.6774 27.5315 77.0275 28.3314 76.6448 29.2664C76.2621 30.2014 76.1638 31.2295 76.3624 32.2207C76.5609 33.2118 77.0473 34.1216 77.7601 34.8348C78.4729 35.548 79.3801 36.0328 80.3669 36.2277C81.3538 36.4226 82.376 36.319 83.3042 35.9299C84.2324 35.5408 85.0251 34.8837 85.5819 34.0417C86.1386 33.1997 86.4346 32.2107 86.4322 31.1996C86.4419 30.5251 86.3166 29.8556 86.0636 29.2308C85.8106 28.6061 85.4351 28.0389 84.9595 27.563C84.484 27.0872 83.918 26.7124 83.2954 26.461C82.6727 26.2096 82.0062 26.0867 81.3353 26.0996V26.0996ZM81.3353 34.2956C80.7189 34.339 80.1037 34.1949 79.5698 33.8821C79.036 33.5693 78.608 33.1023 78.3416 32.5417C78.0753 31.9812 77.9828 31.3531 78.0762 30.739C78.1697 30.1249 78.4447 29.5533 78.8656 29.0985C79.2865 28.6436 79.8337 28.3266 80.4362 28.1885C81.0387 28.0505 81.6685 28.0979 82.2439 28.3245C82.8192 28.5511 83.3135 28.9465 83.6623 29.4593C84.0112 29.972 84.1986 30.5784 84.2001 31.1996C84.2193 31.5932 84.1599 31.9867 84.0255 32.3569C83.891 32.7271 83.6842 33.0665 83.4172 33.355C83.1502 33.6436 82.8284 33.8755 82.4709 34.037C82.1133 34.1985 81.7272 34.2865 81.3353 34.2956ZM70.2105 26.0996C69.2048 26.102 68.2223 26.4041 67.3874 26.9678C66.5525 27.5315 65.9027 28.3314 65.52 29.2664C65.1373 30.2014 65.039 31.2295 65.2375 32.2207C65.436 33.2118 65.9225 34.1216 66.6353 34.8348C67.3481 35.548 68.2553 36.0328 69.2421 36.2277C70.229 36.4226 71.2511 36.319 72.1794 35.9299C73.1076 35.5408 73.9002 34.8837 74.457 34.0417C75.0138 33.1997 75.3097 32.2107 75.3074 31.1996C75.3171 30.5251 75.1917 29.8556 74.9387 29.2308C74.6857 28.6061 74.3103 28.0389 73.8347 27.563C73.3591 27.0872 72.7932 26.7124 72.1706 26.461C71.5479 26.2096 70.8813 26.0867 70.2105 26.0996V26.0996ZM70.2105 34.2956C69.5941 34.339 68.9789 34.1949 68.445 33.8821C67.9111 33.5693 67.4832 33.1023 67.2168 32.5417C66.9505 31.9812 66.858 31.3531 66.9514 30.739C67.0449 30.1249 67.3199 29.5533 67.7408 29.0985C68.1617 28.6436 68.7089 28.3266 69.3114 28.1885C69.9139 28.0505 70.5437 28.0979 71.1191 28.3245C71.6944 28.5511 72.1886 28.9465 72.5375 29.4593C72.8864 29.972 73.0737 30.5784 73.0752 31.1996C73.0945 31.5932 73.0351 31.9867 72.9006 32.3569C72.7662 32.7271 72.5594 33.0665 72.2924 33.355C72.0254 33.6436 71.7036 33.8755 71.3461 34.037C70.9885 34.1985 70.6024 34.2865 70.2105 34.2956ZM56.9848 27.6716V29.8316H62.1414C62.0605 30.849 61.6399 31.809 60.9477 32.5556C60.4305 33.0854 59.8083 33.5002 59.1216 33.773C58.4348 34.0459 57.6987 34.1708 56.961 34.1396C55.4414 34.1396 53.9841 33.5328 52.9096 32.4525C51.8351 31.3723 51.2314 29.9073 51.2314 28.3796C51.2314 26.852 51.8351 25.3869 52.9096 24.3067C53.9841 23.2265 55.4414 22.6196 56.961 22.6196C58.4177 22.5978 59.8244 23.154 60.8761 24.1676L62.3921 22.6436C61.6806 21.9362 60.8359 21.3787 59.9074 21.0037C58.9789 20.6286 57.9853 20.4437 56.9848 20.4596C55.9237 20.4181 54.8651 20.5924 53.8725 20.972C52.88 21.3516 51.9738 21.9287 51.2085 22.6688C50.4431 23.4089 49.8342 24.2967 49.4183 25.279C49.0023 26.2614 48.788 27.318 48.788 28.3856C48.788 29.4532 49.0023 30.5098 49.4183 31.4922C49.8342 32.4745 50.4431 33.3623 51.2085 34.1024C51.9738 34.8425 52.88 35.4196 53.8725 35.7992C54.8651 36.1789 55.9237 36.3531 56.9848 36.3116C58.0059 36.3526 59.024 36.176 59.9724 35.7934C60.9208 35.4108 61.7779 34.8308 62.4876 34.0916C63.741 32.7073 64.4089 30.8866 64.3497 29.0156C64.3539 28.5653 64.318 28.1155 64.2422 27.6716H56.9848ZM111.069 29.3516C110.758 28.4309 110.176 27.627 109.4 27.0462C108.624 26.4655 107.691 26.1354 106.724 26.0996C106.071 26.0983 105.425 26.2317 104.825 26.4915C104.226 26.7512 103.686 27.1319 103.238 27.6099C102.791 28.0878 102.445 28.653 102.224 29.2705C102.002 29.8879 101.909 30.5445 101.95 31.1996C101.939 32.295 102.282 33.3644 102.926 34.2479C103.57 35.1315 104.482 35.7818 105.524 36.1018C106.566 36.4218 107.683 36.3942 108.708 36.0233C109.734 35.6523 110.612 34.9578 111.212 34.0436L109.482 32.8436C109.224 33.2759 108.858 33.633 108.42 33.8792C107.982 34.1255 107.488 34.2525 106.987 34.2476C106.469 34.2691 105.958 34.1327 105.519 33.8564C105.08 33.5802 104.735 33.1769 104.528 32.6996L111.32 29.8796L111.069 29.3516ZM104.146 31.0556C104.122 30.6829 104.172 30.309 104.293 29.956C104.414 29.6029 104.605 29.2777 104.852 28.9994C105.1 28.7212 105.401 28.4954 105.737 28.3354C106.072 28.1754 106.437 28.0844 106.808 28.0676C107.192 28.044 107.575 28.135 107.909 28.3293C108.242 28.5235 108.511 28.8124 108.682 29.1596L104.146 31.0556ZM98.6313 35.9996H100.863V20.9996H98.6313V35.9996ZM94.9787 27.2396H94.8952C94.5617 26.8578 94.1502 26.553 93.6887 26.3459C93.2273 26.1388 92.7267 26.0343 92.2214 26.0396C90.917 26.1032 89.6869 26.6689 88.786 27.6195C87.8852 28.5701 87.3827 29.8327 87.3827 31.1456C87.3827 32.4585 87.8852 33.7211 88.786 34.6717C89.6869 35.6223 90.917 36.188 92.2214 36.2516C92.7275 36.2618 93.2295 36.1595 93.6917 35.9521C94.1539 35.7447 94.5649 35.4372 94.8952 35.0516H94.9787V35.7836C94.9787 37.7396 93.9403 38.7836 92.2691 38.7836C91.7109 38.7713 91.1689 38.5925 90.712 38.2698C90.255 37.9472 89.9038 37.4953 89.7028 36.9716L87.7691 37.7756C88.1266 38.6783 88.7482 39.4507 89.5517 39.9906C90.3552 40.5306 91.3028 40.8127 92.2691 40.7996C94.8832 40.7996 97.0437 39.2516 97.0437 35.4836V26.3996H94.9787V27.2396ZM92.4124 34.2956C91.6303 34.2466 90.8962 33.8997 90.3597 33.3256C89.8231 32.7515 89.5244 31.9934 89.5244 31.2056C89.5244 30.4179 89.8231 29.6597 90.3597 29.0856C90.8962 28.5115 91.6303 28.1646 92.4124 28.1156C92.7946 28.1322 93.1697 28.2259 93.5152 28.3912C93.8606 28.5564 94.1695 28.7899 94.4234 29.0776C94.6774 29.3654 94.8711 29.7015 94.9932 30.066C95.1152 30.4306 95.1631 30.8161 95.1339 31.1996C95.1665 31.5844 95.1211 31.9719 95.0004 32.3386C94.8798 32.7053 94.6864 33.0435 94.432 33.333C94.1776 33.6224 93.8674 33.8569 93.5203 34.0224C93.1732 34.1878 92.7963 34.2808 92.4124 34.2956V34.2956ZM121.526 20.9996H116.178V35.9996H118.41V30.3116H121.526C122.162 30.3576 122.8 30.2713 123.402 30.0581C124.003 29.8449 124.555 29.5094 125.022 29.0726C125.489 28.6358 125.861 28.1069 126.116 27.519C126.37 26.9311 126.502 26.2968 126.502 25.6556C126.502 25.0144 126.37 24.3801 126.116 23.7922C125.861 23.2043 125.489 22.6755 125.022 22.2386C124.555 21.8018 124.003 21.4663 123.402 21.2531C122.8 21.04 122.162 20.9537 121.526 20.9996V20.9996ZM121.526 28.1996H118.41V23.0876H121.573C121.909 23.0876 122.241 23.154 122.551 23.2831C122.861 23.4121 123.142 23.6013 123.38 23.8398C123.617 24.0782 123.805 24.3613 123.933 24.6729C124.062 24.9844 124.128 25.3184 124.128 25.6556C124.128 25.9928 124.062 26.3268 123.933 26.6383C123.805 26.9499 123.617 27.233 123.38 27.4715C123.142 27.7099 122.861 27.8991 122.551 28.0281C122.241 28.1572 121.909 28.2236 121.573 28.2236L121.526 28.1996ZM135.3 26.0516C134.487 26.0012 133.678 26.1915 132.971 26.5988C132.265 27.0062 131.693 27.6128 131.325 28.3436L133.295 29.1716C133.494 28.8109 133.793 28.5158 134.155 28.322C134.517 28.1283 134.927 28.0441 135.336 28.0796C135.619 28.0463 135.907 28.0701 136.181 28.1496C136.455 28.2291 136.71 28.3626 136.933 28.5425C137.155 28.7223 137.339 28.9448 137.475 29.1971C137.611 29.4493 137.695 29.7262 137.723 30.0116V30.1556C137.006 29.7763 136.207 29.5786 135.396 29.5796C133.271 29.5796 131.099 30.7796 131.099 32.9636C131.12 33.4278 131.233 33.8831 131.433 34.3023C131.632 34.7215 131.913 35.0961 132.26 35.4039C132.606 35.7118 133.01 35.9465 133.448 36.0942C133.887 36.2418 134.35 36.2995 134.811 36.2636C135.371 36.2948 135.929 36.1756 136.428 35.9183C136.928 35.6611 137.35 35.275 137.652 34.7996H137.723V35.9996H139.872V30.2276C139.872 27.5996 137.89 26.0756 135.348 26.0756L135.3 26.0516ZM135.026 34.2716C134.298 34.2716 133.283 33.8996 133.283 32.9996C133.283 31.7996 134.548 31.3916 135.67 31.3916C136.379 31.374 137.08 31.5481 137.699 31.8956C137.625 32.5473 137.317 33.1496 136.834 33.5909C136.351 34.0322 135.726 34.2825 135.073 34.2956L135.026 34.2716ZM147.702 26.3996L145.148 32.9036H145.076L142.426 26.3996H140.039L144.014 35.4956L141.746 40.5476H144.074L150.185 26.3996H147.702ZM127.649 35.9996H129.869V20.9996H127.649V35.9996Z" fill="white"/>
<path d="M12.4617 9.04836C12.0683 9.5159 11.8676 10.1169 11.9006 10.7284V37.2724C11.86 37.8848 12.0617 38.4886 12.4617 38.9524L12.5452 39.0484L27.3345 24.1804V23.8204L12.5452 8.96436L12.4617 9.04836Z" fill="url(#paint0_linear_852_1032)"/>
<path d="M32.2284 29.1363L27.3345 24.1803V23.8203L32.2284 18.8643L32.3359 18.9363L38.1967 22.2723C39.8678 23.2203 39.8678 24.7803 38.1967 25.7403L32.3597 29.0763L32.2284 29.1363Z" fill="url(#paint1_linear_852_1032)"/>
<path d="M32.3718 29.0645L27.3346 24.0005L12.4617 38.9525C12.799 39.2543 13.2307 39.428 13.682 39.4433C14.1333 39.4586 14.5757 39.3147 14.9325 39.0365L32.3718 29.0645" fill="url(#paint2_linear_852_1032)"/>
<path d="M32.3718 18.9358L14.9325 8.97577C14.578 8.69366 14.136 8.54624 13.6841 8.55941C13.2321 8.57257 12.7993 8.7455 12.4617 9.04777L27.3346 23.9998L32.3718 18.9358Z" fill="url(#paint3_linear_852_1032)"/>
<path opacity="0.2" d="M32.2285 28.9561L14.9325 38.8561C14.5887 39.1169 14.1696 39.2581 13.7389 39.2581C13.3081 39.2581 12.8891 39.1169 12.5452 38.8561V38.8561L12.4617 38.9401L12.5452 39.0361C12.8891 39.2969 13.3081 39.4381 13.7389 39.4381C14.1696 39.4381 14.5887 39.2969 14.9325 39.0361L32.3718 29.0641L32.2285 28.9561Z" fill="black"/>
<path opacity="0.12" d="M12.4617 38.7838C12.0783 38.3078 11.8904 37.7025 11.9365 37.0918V37.2718C11.8959 37.8843 12.0976 38.488 12.4976 38.9518L12.5811 38.8678L12.4617 38.7838Z" fill="black"/>
<path opacity="0.12" d="M38.1968 25.5605L32.2285 28.9565L32.3359 29.0645L38.1968 25.7285C38.5427 25.5814 38.8428 25.3433 39.0655 25.0392C39.2882 24.7351 39.4252 24.3763 39.462 24.0005C39.3874 24.342 39.234 24.6611 39.0143 24.932C38.7945 25.203 38.5145 25.4183 38.1968 25.5605Z" fill="black"/>
<path opacity="0.25" d="M14.9326 9.14378L38.1969 22.4398C38.5146 22.582 38.7946 22.7973 39.0144 23.0683C39.2341 23.3392 39.3875 23.6583 39.4622 23.9998C39.4253 23.624 39.2883 23.2652 39.0656 22.9611C38.8429 22.657 38.5428 22.4188 38.1969 22.2718L14.9326 8.97578C13.2735 8.01578 11.9008 8.80778 11.9008 10.7278V10.9078C11.9366 8.98778 13.2735 8.19578 14.9326 9.14378Z" fill="white"/>
<path d="M50.2646 17.1239H49.3932V14.7239H50.1333C50.4662 14.3605 50.7166 13.9287 50.8671 13.4583C51.0175 12.9879 51.0645 12.4903 51.0046 11.9999V8.3999H55.7792V14.7119H56.579V17.1119H55.6957V15.5999H50.2646V17.1239ZM51.9237 11.9999C51.977 12.9638 51.7399 13.9215 51.2433 14.7479H54.8243V9.2879H51.9237V11.9999Z" fill="white" stroke="white" stroke-width="0.411304" stroke-miterlimit="10"/>
<path d="M63.7528 14.6643C63.4091 15.0108 63.0007 15.2857 62.5511 15.4733C62.1015 15.6609 61.6195 15.7574 61.1327 15.7574C60.646 15.7574 60.164 15.6609 59.7144 15.4733C59.2648 15.2857 58.8564 15.0108 58.5127 14.6643C57.8298 13.9473 57.4486 12.993 57.4486 12.0003C57.4486 11.0076 57.8298 10.0533 58.5127 9.33629C58.8564 8.98979 59.2648 8.71488 59.7144 8.5273C60.164 8.33972 60.646 8.24316 61.1327 8.24316C61.6195 8.24316 62.1015 8.33972 62.5511 8.5273C63.0007 8.71488 63.4091 8.98979 63.7528 9.33629C64.0976 9.68669 64.3693 10.1029 64.5517 10.5604C64.7342 11.0179 64.8237 11.5075 64.8152 12.0003C64.8293 12.4938 64.7422 12.985 64.5595 13.4433C64.3767 13.9016 64.1021 14.3172 63.7528 14.6643V14.6643ZM59.1811 14.0643C59.4326 14.3269 59.7351 14.5348 60.0698 14.6752C60.4044 14.8155 60.7642 14.8853 61.1268 14.8803C61.4897 14.8875 61.8501 14.8187 62.1851 14.6782C62.52 14.5377 62.8222 14.3286 63.0724 14.0643C63.5875 13.5016 63.8734 12.7649 63.8734 12.0003C63.8734 11.2357 63.5875 10.4989 63.0724 9.93629C62.8222 9.67194 62.52 9.46286 62.1851 9.32237C61.8501 9.18188 61.4897 9.11306 61.1268 9.12029C60.7642 9.11524 60.4044 9.18505 60.0698 9.32541C59.7351 9.46577 59.4326 9.67369 59.1811 9.93629C58.6737 10.5027 58.3928 11.238 58.3928 12.0003C58.3928 12.7626 58.6737 13.4979 59.1811 14.0643Z" fill="white" stroke="white" stroke-width="0.411304" stroke-miterlimit="10"/>
<path d="M69.4466 15.7557C68.9636 15.7633 68.4841 15.6726 68.0369 15.4891C67.5897 15.3055 67.1841 15.0329 66.8444 14.6877C66.1557 13.9641 65.7712 13.0012 65.7712 11.9997C65.7712 10.9982 66.1557 10.0353 66.8444 9.31167C67.1896 8.96048 67.603 8.68444 68.0589 8.50071C68.5148 8.31698 69.0034 8.22949 69.4943 8.24367C69.994 8.22946 70.4904 8.33018 70.9455 8.53814C71.4006 8.74611 71.8024 9.05583 72.1203 9.44367L71.4877 10.0677C71.2532 9.76457 70.9498 9.52247 70.6029 9.36169C70.2561 9.2009 69.8759 9.12614 69.4943 9.14367C69.1269 9.13425 68.7615 9.20075 68.4206 9.33904C68.0798 9.47734 67.7708 9.68449 67.5129 9.94767C66.9987 10.5155 66.7137 11.2558 66.7137 12.0237C66.7137 12.7916 66.9987 13.5318 67.5129 14.0997C67.7708 14.3629 68.0798 14.57 68.4206 14.7083C68.7615 14.8466 69.1269 14.9131 69.4943 14.9037C69.9045 14.892 70.3071 14.7903 70.6741 14.6058C71.0411 14.4214 71.3636 14.1585 71.619 13.8357L72.2636 14.4717C71.9366 14.8656 71.5296 15.1848 71.0699 15.4077C70.5621 15.6462 70.007 15.7652 69.4466 15.7557Z" fill="white" stroke="white" stroke-width="0.411304" stroke-miterlimit="10"/>
<path d="M76.0118 15.5999H75.0927V9.2879H73.0874V8.3999H78.0052V9.2879H76.0118V15.5999Z" fill="white" stroke="white" stroke-width="0.411304" stroke-miterlimit="10"/>
<path d="M84.3314 8.3999L81.6218 14.4719C81.5561 14.7154 81.4385 14.9415 81.2772 15.1348C81.1159 15.328 80.9148 15.4836 80.6877 15.5909C80.4606 15.6982 80.213 15.7546 79.9621 15.7562C79.7112 15.7577 79.4629 15.7044 79.2345 15.5999L79.4733 14.7479C79.6193 14.8304 79.7833 14.8757 79.9507 14.8799C80.1274 14.8888 80.3025 14.8427 80.4521 14.7479C80.5971 14.6266 80.7081 14.4695 80.7744 14.2919L81.037 13.7159L78.6497 8.3999H79.7359L81.5025 12.5279L83.2452 8.3999H84.3314Z" fill="white" stroke="white" stroke-width="0.411304" stroke-miterlimit="10"/>
<path d="M85.37 15.5999V8.3999H90.5504V15.5999H89.6313V9.2879H86.2891V15.5999H85.37Z" fill="white" stroke="white" stroke-width="0.411304" stroke-miterlimit="10"/>
<path d="M92.1858 15.5999V8.3999H93.1049V11.4839H96.6858V8.3999H97.6169V15.5999H96.6858V12.3479H93.1049V15.5999H92.1858Z" fill="white" stroke="white" stroke-width="0.411304" stroke-miterlimit="10"/>
<path d="M105.113 14.6643C104.768 15.0112 104.359 15.2863 103.908 15.4741C103.457 15.6618 102.974 15.7584 102.487 15.7584C101.999 15.7584 101.516 15.6618 101.065 15.4741C100.615 15.2863 100.205 15.0112 99.8607 14.6643C99.1778 13.9473 98.7966 12.993 98.7966 12.0003C98.7966 11.0076 99.1778 10.0533 99.8607 9.33629C100.204 8.98979 100.613 8.71488 101.062 8.5273C101.512 8.33972 101.994 8.24316 102.481 8.24316C102.968 8.24316 103.45 8.33972 103.899 8.5273C104.349 8.71488 104.757 8.98979 105.101 9.33629C105.778 10.0561 106.156 11.0094 106.156 12.0003C106.156 12.9912 105.778 13.9445 105.101 14.6643H105.113ZM100.541 14.0643C100.791 14.3286 101.093 14.5377 101.428 14.6782C101.763 14.8187 102.124 14.8875 102.487 14.8803C102.849 14.8854 103.209 14.8155 103.544 14.6752C103.878 14.5348 104.181 14.3269 104.432 14.0643C104.94 13.4979 105.221 12.7626 105.221 12.0003C105.221 11.238 104.94 10.5027 104.432 9.93629C104.181 9.67369 103.878 9.46577 103.544 9.32541C103.209 9.18505 102.849 9.11524 102.487 9.12029C102.124 9.11306 101.763 9.18188 101.428 9.32237C101.093 9.46286 100.791 9.67194 100.541 9.93629C100.026 10.4989 99.7402 11.2357 99.7402 12.0003C99.7402 12.7649 100.026 13.5016 100.541 14.0643V14.0643Z" fill="white" stroke="white" stroke-width="0.411304" stroke-miterlimit="10"/>
<path d="M109.923 15.6V8.40001H112.513C113.05 8.39459 113.57 8.59152 113.97 8.95201C114.169 9.12603 114.328 9.34198 114.435 9.5846C114.543 9.82722 114.596 10.0906 114.59 10.356C114.593 10.6793 114.502 10.9963 114.328 11.268C114.152 11.5257 113.908 11.7292 113.624 11.856V11.856C113.968 11.9745 114.271 12.1913 114.495 12.48C114.714 12.7741 114.832 13.1324 114.829 13.5C114.835 13.7766 114.781 14.0512 114.669 14.3043C114.558 14.5573 114.392 14.7825 114.185 14.964C113.77 15.3516 113.223 15.5624 112.657 15.552L109.923 15.6ZM110.842 11.484H112.513C112.67 11.4931 112.826 11.4665 112.971 11.4063C113.116 11.346 113.245 11.2536 113.349 11.136C113.551 10.9366 113.667 10.6649 113.671 10.38C113.683 10.0943 113.584 9.81504 113.397 9.60001C113.296 9.4881 113.173 9.39993 113.034 9.34183C112.896 9.28374 112.747 9.25716 112.597 9.26401H110.878L110.842 11.484ZM110.842 14.712H112.704C112.866 14.7175 113.027 14.6869 113.176 14.6226C113.324 14.5583 113.457 14.4618 113.564 14.34C113.77 14.1187 113.885 13.8272 113.886 13.524C113.879 13.2234 113.76 12.9364 113.552 12.72C113.437 12.5985 113.298 12.5027 113.144 12.4386C112.989 12.3745 112.823 12.3437 112.657 12.348H110.842V14.712Z" fill="white" stroke="white" stroke-width="0.411304" stroke-miterlimit="10"/>
</g>
<defs>
<linearGradient id="paint0_linear_852_1032" x1="26.0215" y1="10.4524" x2="5.88581" y2="30.4815" gradientUnits="userSpaceOnUse">
<stop stop-color="#00A0FF"/>
<stop offset="0.01" stop-color="#00A1FF"/>
<stop offset="0.26" stop-color="#00BEFF"/>
<stop offset="0.51" stop-color="#00D2FF"/>
<stop offset="0.76" stop-color="#00DFFF"/>
<stop offset="1" stop-color="#00E3FF"/>
</linearGradient>
<linearGradient id="paint1_linear_852_1032" x1="40.3811" y1="24.0003" x2="11.5067" y2="24.0003" gradientUnits="userSpaceOnUse">
<stop stop-color="#FFE000"/>
<stop offset="0.41" stop-color="#FFBD00"/>
<stop offset="0.78" stop-color="#FFA500"/>
<stop offset="1" stop-color="#FF9C00"/>
</linearGradient>
<linearGradient id="paint2_linear_852_1032" x1="29.6383" y1="26.7605" x2="2.32675" y2="53.9156" gradientUnits="userSpaceOnUse">
<stop stop-color="#FF3A44"/>
<stop offset="1" stop-color="#C31162"/>
</linearGradient>
<linearGradient id="paint3_linear_852_1032" x1="8.71361" y1="0.215768" x2="20.9054" y2="12.3431" gradientUnits="userSpaceOnUse">
<stop stop-color="#32A071"/>
<stop offset="0.07" stop-color="#2DA771"/>
<stop offset="0.48" stop-color="#15CF74"/>
<stop offset="0.8" stop-color="#06E775"/>
<stop offset="1" stop-color="#00F076"/>
</linearGradient>
<clipPath id="clip0_852_1032">
<rect width="161.143" height="48" fill="white"/>
</clipPath>
</defs>
</svg>
