<svg width="114" height="80" viewBox="0 0 114 80" fill="none" xmlns="http://www.w3.org/2000/svg">
<path d="M111.44 66.4C110.303 72 105.471 76.2675 99.5013 77.0675C90.1196 78.4 74.4835 80 56.8575 80C39.5165 80 23.8804 78.4 14.2137 77.0675C8.24427 76.2675 3.40964 72 2.27482 66.4C1.13741 60.2675 0 51.2 0 40C0 28.8 1.13741 19.7325 2.27482 13.6C3.41223 8 8.24427 3.7325 14.2137 2.9325C23.5954 1.6 39.2315 0 56.8575 0C74.4835 0 89.8346 1.6 99.5013 2.9325C105.471 3.7325 110.305 8 111.44 13.6C112.578 19.7325 114 28.8 114 40C113.715 51.2 112.578 60.2675 111.44 66.4Z" fill="url(#paint0_linear_609_1213)"/>
<path d="M44.0455 58.92V21.0825C44.0455 19.225 46.1907 18.115 47.7945 19.1475L77.2065 38.0675C78.6393 38.9875 78.6393 41.0175 77.2065 41.94L47.7945 60.86C46.1907 61.8875 44.0455 60.78 44.0455 58.92Z" fill="white"/>
<defs>
<linearGradient id="paint0_linear_609_1213" x1="20.2505" y1="4.6775" x2="98.7754" y2="86.0579" gradientUnits="userSpaceOnUse">
<stop stop-color="#F44F5A"/>
<stop offset="0.443" stop-color="#EE3D4A"/>
<stop offset="1" stop-color="#E52030"/>
</linearGradient>
</defs>
</svg>
